<svg xmlns="http://www.w3.org/2000/svg" width="500" height="500" viewBox="0 0 500 500">
<g>
<path d="M 282.84,230.39 L 284.50,231.00 L 285.12,231.41 L 286.19,232.29 L 286.42,232.77 L 286.59,233.26 L 286.58,233.51 L 286.50,234.00 L 286.36,234.23 L 285.54,234.58 L 284.84,234.14 L 284.44,233.58 L 283.57,232.79 L 282.84,232.41 L 282.43,232.29 L 280.66,231.98 L 279.78,232.08 L 278.08,232.43 L 277.48,232.84 L 276.94,233.28 L 276.77,233.55 L 276.50,234.13 L 276.50,234.47 L 276.73,235.47 L 277.15,236.04 L 277.52,236.29 L 278.36,236.79 L 278.96,237.03 L 280.31,237.51 L 281.20,237.76 L 283.53,238.67 L 284.80,239.43 L 285.28,239.87 L 286.16,240.77 L 286.44,241.26 L 286.91,242.25 L 286.99,242.75 L 287.05,243.76 L 286.92,244.25 L 286.55,245.23 L 286.21,245.68 L 285.41,246.55 L 284.84,246.93 L 283.60,247.64 L 282.81,247.92 L 281.17,248.48 L 280.59,248.66 L 280.06,248.82 L 279.89,248.87 L 279.61,248.93 L 279.60,248.92 L 279.09,248.70 L 278.41,248.44 L 278.00,248.29 L 276.37,247.43 L 275.24,246.63 L 274.75,246.18 L 273.81,245.29 L 273.50,244.88 L 273.00,244.11 L 273.00,243.85 L 273.44,243.25 L 274.09,243.00 L 274.50,243.00 L 275.56,243.28 L 276.00,243.70 L 276.00,243.96 L 276.61,244.97 L 277.50,245.73 L 278.07,246.04 L 279.19,246.50 L 279.88,246.61 L 280.22,246.57 L 280.93,246.43 L 281.32,246.25 L 282.14,245.83 L 282.63,245.51 L 284.35,243.99 L 284.73,243.06 L 284.53,242.62 L 284.25,242.19 L 284.01,241.97 L 283.47,241.54 L 283.10,241.32 L 282.29,240.89 L 281.78,240.67 L 280.69,240.23 L 280.04,240.00 L 276.50,238.38 L 274.85,237.17 L 274.39,236.50 L 273.70,235.15 L 273.73,234.43 L 274.04,232.96 L 274.57,232.20 L 275.49,231.17 L 276.21,230.67 L 276.63,230.49 L 277.54,230.20 L 278.09,230.12 L 279.27,230.00 L 279.99,230.00 M 342.99,230.53 L 344.78,231.33 L 345.42,231.85 L 346.52,232.95 L 346.69,233.52 L 346.79,234.09 L 346.72,234.36 L 346.51,234.89 L 346.27,235.13 L 345.71,235.51 L 345.35,235.56 L 345.18,235.48 L 344.82,235.24 L 344.64,235.02 L 344.26,234.49 L 344.06,234.11 L 342.58,232.69 L 341.18,232.12 L 340.40,232.03 L 338.82,231.98 L 338.09,232.17 L 336.70,232.70 L 336.20,233.20 L 335.71,233.98 L 335.45,234.71 L 335.35,235.15 L 335.05,237.10 L 335.04,238.20 L 335.09,240.44 L 335.26,241.46 L 335.68,243.41 L 336.04,244.07 L 337.56,245.50 L 339.06,246.00 L 340.00,246.00 L 342.44,245.50 L 343.63,244.68 L 343.96,244.07 L 344.74,242.46 L 344.95,241.74 L 344.88,241.53 L 344.64,241.18 L 344.34,241.10 L 343.62,241.00 L 343.06,241.00 L 341.51,240.71 L 340.67,240.27 L 340.50,240.00 L 340.48,239.60 L 340.70,239.37 L 340.92,239.28 L 342.05,239.00 L 342.94,239.00 L 344.52,239.09 L 345.23,239.28 L 345.45,239.46 L 345.81,239.89 L 345.89,240.23 L 346.00,241.00 L 346.00,241.55 L 345.80,242.75 L 345.49,243.62 L 345.25,244.07 L 344.12,245.84 L 343.35,246.55 L 342.02,247.79 L 341.54,248.16 L 340.67,248.74 L 340.27,248.82 L 339.47,248.82 L 338.97,248.63 L 337.84,248.13 L 337.02,247.72 L 335.29,246.52 L 334.31,245.52 L 333.91,244.93 L 333.17,243.71 L 332.90,243.04 L 332.42,241.67 L 332.28,240.96 L 332.07,239.50 L 332.07,238.77 L 332.14,237.31 L 332.28,236.59 L 332.65,235.18 L 332.94,234.51 L 333.62,233.22 L 334.07,232.63 L 335.25,231.37 L 336.06,230.77 L 336.51,230.56 L 337.45,230.22 L 338.01,230.13 L 339.20,230.00 L 339.92,230.00 M 156.47,230.34 L 158.07,230.87 L 158.62,231.25 L 159.54,232.07 L 159.69,232.55 L 159.78,233.55 L 159.45,234.08 L 158.68,234.61 L 158.14,234.21 L 157.81,233.63 L 157.15,232.93 L 156.53,232.56 L 156.15,232.43 L 154.48,232.01 L 153.58,231.99 L 151.80,232.10 L 151.09,232.35 L 150.42,232.63 L 150.17,232.82 L 149.74,233.24 L 149.64,233.50 L 149.80,234.84 L 150.50,235.76 L 151.10,236.21 L 152.45,237.08 L 153.31,237.45 L 155.16,238.15 L 156.22,238.39 L 158.67,239.46 L 159.81,240.51 L 160.11,241.15 L 160.52,242.52 L 160.43,243.26 L 160.06,244.79 L 159.55,245.57 L 158.16,247.29 L 157.72,247.68 L 157.53,247.81 L 157.18,248.00 L 157.06,248.00 L 156.44,248.05 L 156.04,248.14 L 155.20,248.34 L 154.83,248.46 L 153.91,248.57 L 153.16,248.50 L 152.74,248.40 L 151.00,247.85 L 150.15,247.43 L 148.51,246.50 L 147.94,245.99 L 147.41,245.49 L 147.25,245.25 L 147.00,244.77 L 147.00,244.55 L 147.14,243.42 L 147.41,243.08 L 147.69,243.12 L 148.35,243.34 L 148.88,243.67 L 150.07,244.47 L 150.92,245.10 L 152.43,246.11 L 153.25,246.50 L 153.62,246.57 L 154.34,246.63 L 154.70,246.55 L 155.45,246.30 L 155.88,246.06 L 157.56,244.59 L 158.05,243.46 L 157.99,242.91 L 157.67,241.83 L 157.21,241.41 L 156.09,240.65 L 155.25,240.48 L 151.85,239.43 L 150.01,238.50 L 149.31,237.96 L 148.05,236.84 L 147.64,236.25 L 146.98,235.05 L 146.88,234.46 L 146.84,233.29 L 147.06,232.77 L 147.66,231.75 L 148.20,231.34 L 149.46,230.60 L 150.34,230.36 L 152.27,230.00 L 153.50,230.00 M 201.86,230.16 L 202.17,230.45 L 202.35,230.71 L 202.73,231.29 L 202.95,231.72 L 203.41,232.66 L 203.69,233.28 L 204.26,234.63 L 204.60,235.48 L 205.31,237.30 L 205.73,238.40 L 206.60,240.74 L 207.10,242.13 L 208.16,245.05 L 208.77,246.75 L 208.94,247.50 L 208.91,247.83 L 208.83,247.93 L 208.40,248.11 L 208.06,247.96 L 207.32,247.50 L 206.95,247.08 L 206.23,246.12 L 206.00,245.50 L 205.36,244.23 L 204.85,243.65 L 204.49,243.47 L 203.70,243.17 L 203.16,243.10 L 201.95,243.00 L 201.13,243.00 L 199.09,243.09 L 198.13,243.27 L 197.81,243.45 L 197.25,243.87 L 197.06,244.21 L 196.72,244.97 L 196.59,245.50 L 196.10,246.81 L 195.73,247.27 L 194.94,248.00 L 194.55,248.00 L 194.02,247.61 L 193.95,246.90 L 194.07,246.27 L 194.42,244.81 L 194.76,243.75 L 195.13,242.63 L 195.36,241.97 L 195.84,240.60 L 196.13,239.81 L 197.30,236.61 L 197.94,234.89 L 198.21,234.20 L 198.70,232.94 L 198.91,232.46 L 199.30,231.59 L 199.47,231.28 L 200.08,230.34 L 200.38,230.17 L 201.00,230.00 L 201.43,230.00 M 358.47,229.95 L 358.59,230.22 L 358.82,230.91 L 358.92,231.50 L 359.11,232.83 L 359.19,233.75 L 359.44,235.91 L 359.73,236.79 L 360.03,237.02 L 360.77,237.38 L 361.40,237.44 L 362.88,237.50 L 364.00,237.50 L 366.60,237.44 L 367.67,237.26 L 367.97,237.02 L 368.44,236.44 L 368.56,235.91 L 368.73,234.68 L 368.81,233.75 L 369.04,232.13 L 369.26,231.27 L 369.41,230.96 L 369.73,230.40 L 369.92,230.24 L 370.32,230.00 L 370.56,230.00 L 371.27,230.40 L 371.60,231.14 L 371.71,231.81 L 371.89,233.39 L 371.94,234.57 L 371.97,235.82 L 371.99,236.56 L 372.00,238.10 L 372.00,239.00 L 371.99,241.49 L 371.96,242.91 L 371.94,243.50 L 371.89,244.61 L 371.85,245.07 L 371.76,245.92 L 371.71,246.25 L 371.45,247.35 L 371.25,247.62 L 370.81,248.00 L 370.50,248.00 L 369.81,247.78 L 369.46,247.40 L 369.34,247.08 L 369.14,246.35 L 369.08,245.84 L 369.00,244.72 L 369.00,240.00 L 359.00,240.00 L 359.00,244.00 L 358.89,246.10 L 358.71,246.82 L 358.51,247.48 L 358.39,247.68 L 358.14,248.00 L 358.00,248.00 L 357.59,247.34 L 357.37,246.29 L 357.28,245.50 L 357.12,243.75 L 357.07,242.66 L 357.00,240.33 L 357.00,239.00 L 357.07,235.94 L 357.18,234.16 L 357.26,233.42 L 357.43,232.04 L 357.53,231.51 L 357.75,230.58 L 357.87,230.30 L 358.11,229.86 L 358.23,229.84 M 297.41,230.66 L 297.63,231.71 L 297.72,232.50 L 297.88,234.25 L 297.93,235.34 L 298.00,237.67 L 298.00,239.00 L 297.97,241.56 L 297.93,242.66 L 297.81,244.71 L 297.72,245.50 L 297.53,246.92 L 297.41,247.34 L 297.15,248.00 L 297.00,248.00 L 296.59,247.34 L 296.37,246.29 L 296.28,245.50 L 296.12,243.75 L 296.07,242.66 L 296.00,240.33 L 296.00,239.00 L 296.07,235.34 L 296.19,233.29 L 296.28,232.50 L 296.47,231.08 L 296.59,230.66 L 296.85,230.00 L 297.00,230.00 M 249.75,230.08 L 251.36,230.20 L 251.99,230.29 L 253.12,230.48 L 253.47,230.60 L 254.00,230.86 L 254.00,231.00 L 253.27,231.71 L 252.19,232.00 L 251.50,232.00 L 250.07,232.14 L 249.49,232.54 L 249.33,233.05 L 249.19,233.62 L 249.14,234.01 L 249.07,234.87 L 249.04,235.43 L 249.01,236.64 L 249.01,237.40 L 249.00,239.02 L 249.00,240.00 L 249.00,241.53 L 248.99,242.19 L 248.96,243.44 L 248.94,243.97 L 248.82,245.82 L 248.70,246.42 L 248.44,247.41 L 248.24,247.66 L 247.80,248.00 L 247.50,248.00 L 246.76,247.66 L 246.41,247.01 L 246.30,246.42 L 246.11,245.02 L 246.06,243.97 L 246.03,242.85 L 246.01,242.19 L 246.00,240.81 L 246.00,240.00 L 245.99,237.41 L 245.98,236.01 L 245.95,235.45 L 245.90,234.43 L 245.86,234.03 L 245.75,233.33 L 245.67,233.07 L 245.29,232.29 L 244.95,232.15 L 244.16,232.00 L 243.56,232.00 L 241.65,231.71 L 240.67,231.27 L 240.50,231.00 L 240.72,230.58 L 241.35,230.35 L 241.91,230.26 L 243.16,230.11 L 244.00,230.07 L 245.83,230.00 L 246.94,230.00 M 231.41,230.66 L 231.63,231.71 L 231.72,232.50 L 231.88,234.25 L 231.93,235.34 L 232.00,237.67 L 232.00,239.00 L 231.93,242.49 L 231.82,244.54 L 231.74,245.36 L 231.56,246.83 L 231.46,247.29 L 231.23,248.00 L 231.11,248.00 L 230.42,247.49 L 229.68,246.69 L 229.20,246.10 L 228.19,244.82 L 227.62,244.04 L 226.46,242.42 L 225.86,241.53 L 224.11,239.02 L 223.02,237.54 L 222.56,236.95 L 221.70,235.89 L 221.39,235.55 L 220.85,235.04 L 220.75,235.03 L 220.46,235.53 L 220.29,236.33 L 220.22,236.92 L 220.10,238.20 L 220.06,238.98 L 220.00,240.61 L 220.00,241.50 L 219.97,243.28 L 219.92,244.06 L 219.80,245.54 L 219.71,246.12 L 219.51,247.18 L 219.39,247.50 L 219.14,248.00 L 219.00,248.00 L 218.59,247.34 L 218.37,246.29 L 218.28,245.50 L 218.12,243.75 L 218.07,242.66 L 218.00,240.33 L 218.00,239.00 L 218.06,235.35 L 218.17,233.40 L 218.26,232.67 L 218.49,231.36 L 218.65,230.94 L 219.01,230.26 L 219.26,230.15 L 219.78,230.08 L 220.12,230.28 L 220.84,230.81 L 221.28,231.30 L 222.22,232.43 L 222.77,233.21 L 223.95,234.92 L 224.64,235.99 L 226.20,238.32 L 227.17,239.68 L 227.59,240.23 L 228.37,241.21 L 228.65,241.52 L 229.15,241.99 L 229.25,241.99 L 229.54,241.52 L 229.71,240.78 L 229.78,240.23 L 229.90,239.05 L 229.94,238.33 L 230.00,236.82 L 230.00,236.00 L 230.08,233.66 L 230.20,232.29 L 230.29,231.75 L 230.49,230.77 L 230.61,230.47 L 230.86,230.00 L 231.00,230.00 M 182.77,229.84 L 183.02,230.02 L 183.13,230.30 L 183.36,230.99 L 183.47,231.51 L 183.66,232.68 L 183.74,233.42 L 183.89,235.00 L 183.93,235.94 L 184.00,237.90 L 184.00,239.00 L 183.93,242.66 L 183.81,244.71 L 183.72,245.50 L 183.53,246.92 L 183.41,247.34 L 183.15,248.00 L 183.00,248.00 L 182.61,247.68 L 182.38,247.19 L 182.29,246.82 L 182.00,245.10 L 182.00,240.00 L 172.00,240.00 L 172.00,244.00 L 171.89,246.10 L 171.71,246.82 L 171.51,247.48 L 171.39,247.68 L 171.14,248.00 L 171.00,248.00 L 170.59,247.34 L 170.37,246.29 L 170.28,245.50 L 170.12,243.75 L 170.07,242.66 L 170.00,240.33 L 170.00,239.00 L 170.07,235.34 L 170.19,233.29 L 170.28,232.50 L 170.47,231.08 L 170.59,230.66 L 170.85,230.00 L 171.00,230.00 L 171.39,230.32 L 171.62,230.82 L 171.71,231.19 L 172.00,232.94 L 172.00,238.11 L 176.75,237.80 L 179.48,237.57 L 180.61,237.31 L 180.93,237.06 L 181.43,236.44 L 181.55,235.91 L 181.73,234.68 L 181.81,233.75 L 182.08,231.50 L 182.29,230.49 L 182.41,230.22 L 182.65,229.83 M 124.26,230.39 L 124.60,231.12 L 124.71,231.80 L 124.89,233.37 L 124.94,234.56 L 124.98,235.81 L 124.99,236.55 L 125.00,238.10 L 125.00,239.00 L 124.93,243.17 L 124.82,245.24 L 124.72,245.95 L 124.49,247.17 L 124.33,247.50 L 123.98,247.98 L 123.75,247.98 L 122.91,247.44 L 122.07,246.60 L 121.55,245.99 L 120.45,244.65 L 119.85,243.84 L 118.62,242.15 L 118.00,241.23 L 113.50,234.50 L 113.20,241.25 L 113.08,243.59 L 112.99,244.46 L 112.79,246.01 L 112.66,246.54 L 112.36,247.43 L 112.16,247.66 L 111.73,248.00 L 111.45,248.00 L 110.74,247.61 L 110.40,246.88 L 110.29,246.20 L 110.11,244.63 L 110.06,243.45 L 110.02,242.19 L 110.01,241.46 L 110.00,239.90 L 110.00,239.00 L 110.06,235.32 L 110.17,233.36 L 110.27,232.62 L 110.51,231.31 L 110.68,230.90 L 111.07,230.23 L 111.33,230.13 L 111.90,230.08 L 112.27,230.29 L 113.05,230.87 L 113.53,231.38 L 114.55,232.56 L 115.16,233.37 L 116.45,235.14 L 117.21,236.25 L 121.50,242.50 L 121.80,236.25 L 122.01,233.31 L 122.21,231.87 L 122.35,231.38 L 122.65,230.54 L 122.85,230.32 L 123.28,230.00 L 123.55,230.00 M 200.53,234.14 L 200.28,234.59 L 200.08,235.11 L 199.98,235.46 L 199.55,237.01 L 199.37,237.91 L 199.11,239.24 L 199.07,239.68 L 199.07,240.43 L 199.18,240.62 L 199.50,240.91 L 199.82,240.94 L 200.55,240.91 L 201.11,240.84 L 202.26,240.56 L 202.79,240.27 L 202.95,240.06 L 203.21,239.58 L 203.25,239.24 L 203.28,238.51 L 203.22,238.02 L 202.80,236.20 L 202.36,235.16 L 202.10,234.78 L 201.55,234.13 L 201.28,234.01 L 200.75,233.92 Z" fill="rgb(1,1,1)"/>
<path d="M 345.49,239.07 L 346.32,239.28 L 346.55,239.56 L 346.88,240.25 L 346.94,240.86 L 347.00,242.30 L 347.00,243.39 L 346.93,245.73 L 346.78,246.75 L 346.63,247.05 L 346.25,247.53 L 345.95,247.63 L 345.25,247.75 L 344.75,247.73 L 343.40,247.78 L 342.72,247.89 L 341.60,248.11 L 342.02,247.79 L 343.35,246.55 L 344.12,245.84 L 345.25,244.07 L 345.49,243.62 L 345.80,242.75 L 346.00,241.55 L 346.00,241.00 L 345.89,240.23 L 345.81,239.89 L 345.45,239.46 L 345.23,239.28 L 344.52,239.09 L 342.94,239.00 L 343.44,239.00 M 335.85,246.91 L 335.45,246.65 L 335.40,246.60 M 344.74,242.46 L 343.96,244.07 L 343.63,244.68 L 342.44,245.50 L 340.00,246.00 L 339.06,246.00 L 338.84,245.92 L 339.37,245.93 L 340.79,245.80 L 341.47,245.51 L 342.80,244.77 L 343.35,244.17 L 344.55,242.67 L 344.85,242.08 M 333.91,244.93 L 334.12,245.24 L 333.66,244.72 L 333.28,243.98 L 333.20,243.75 M 333.62,233.22 L 332.94,234.51 L 332.65,235.18 L 332.28,236.59 L 332.14,237.31 L 332.07,238.77 L 332.07,239.50 L 332.28,240.96 L 332.42,241.67 L 332.52,241.94 L 332.34,241.47 L 332.01,239.80 L 331.99,238.99 L 332.03,237.39 L 332.19,236.64 L 332.58,235.16 L 332.90,234.50 L 333.61,233.22 L 333.73,233.07 M 344.88,241.53 L 344.95,241.74 L 344.92,241.85 L 344.90,241.69 L 344.74,241.32 M 344.34,241.10 L 344.64,241.18 L 344.70,241.27 L 344.41,241.16 L 343.73,241.02 M 339.01,230.02 L 339.10,230.00 L 339.20,230.00 Z" fill="rgb(46,46,46)"/>
<path d="M 165.39,336.36 L 165.62,336.91 L 165.71,337.32 L 166.00,339.26 L 166.00,340.50 L 165.89,342.86 L 165.71,343.68 L 165.51,344.42 L 165.39,344.64 L 165.14,345.00 L 165.00,345.00 L 164.61,344.64 L 164.38,344.09 L 164.29,343.68 L 164.00,341.74 L 164.00,340.50 L 164.29,337.32 L 164.49,336.58 L 164.61,336.36 L 164.86,336.00 L 165.00,336.00 M 334.75,336.12 L 335.77,336.20 L 336.20,336.27 L 336.29,336.32 L 336.37,336.43 L 336.29,336.49 L 336.02,336.62 L 335.75,336.69 L 334.93,337.11 L 334.53,337.58 L 334.39,337.92 L 334.15,338.69 L 334.09,339.21 L 334.00,340.35 L 334.00,341.07 L 333.89,343.13 L 333.71,343.85 L 333.51,344.49 L 333.39,344.69 L 333.14,345.00 L 333.00,345.00 L 332.61,344.64 L 332.38,344.09 L 332.29,343.68 L 332.00,341.74 L 332.00,340.50 L 332.06,338.00 L 332.22,336.95 L 332.40,336.67 L 332.84,336.23 L 333.22,336.15 L 334.10,336.09 M 252.32,338.98 L 252.59,339.26 L 252.85,339.77 L 252.88,340.21 L 252.86,341.17 L 252.74,341.67 L 252.48,342.66 L 252.34,342.98 L 252.26,342.99 L 252.09,342.88 L 251.98,342.67 L 251.72,342.14 L 251.53,341.71 L 251.21,340.41 L 251.24,339.66 L 251.36,339.39 L 251.64,338.96 L 251.85,338.92 M 306.32,338.98 L 306.59,339.26 L 306.85,339.77 L 306.88,340.21 L 306.86,341.17 L 306.74,341.67 L 306.48,342.66 L 306.34,342.98 L 306.26,342.99 L 306.09,342.88 L 305.98,342.67 L 305.72,342.14 L 305.53,341.71 L 305.21,340.41 L 305.24,339.66 L 305.36,339.39 L 305.64,338.96 L 305.85,338.92 Z" fill="rgb(106,106,106)"/>
<path d="M 232.00,306.00 L 215.31,306.00 L 214.66,293.25 L 214.09,284.16 L 213.59,278.03 L 213.31,275.12 L 212.73,269.46 L 212.43,267.01 L 212.13,264.63 L 211.97,263.57 L 211.67,261.55 L 211.52,260.70 L 211.44,258.89 L 211.54,258.54 L 211.62,258.46 L 211.80,258.38 L 211.93,258.46 L 212.34,259.01 L 212.65,259.66 L 212.80,260.09 L 213.41,262.09 L 213.64,263.26 L 214.45,267.50 L 214.97,262.50 L 215.50,257.50 L 223.75,257.21 L 232.00,256.92 M 134.00,306.00 L 116.96,306.00 L 117.50,257.50 L 125.75,257.21 L 134.00,256.92 M 253.26,257.20 L 254.32,257.65 L 254.86,258.15 L 255.40,258.69 L 255.70,259.06 L 256.32,259.84 L 256.68,260.34 L 257.42,261.41 L 257.85,262.07 L 258.75,263.47 L 259.28,264.30 L 262.99,269.75 L 265.64,273.24 L 267.03,274.90 L 269.88,278.18 L 271.38,279.73 L 274.41,282.78 L 275.99,284.21 L 279.18,287.01 L 280.83,288.31 L 284.17,290.85 L 285.89,292.01 L 289.35,294.26 L 291.12,295.27 L 294.69,297.21 L 296.50,298.07 L 303.67,301.01 L 308.27,302.44 L 310.56,302.90 L 315.14,303.66 L 317.50,303.81 L 322.28,303.95 L 324.82,303.80 L 331.49,302.85 L 335.89,301.67 L 337.99,300.83 L 342.11,299.01 L 343.99,297.89 L 347.63,295.51 L 349.19,294.14 L 352.26,290.87 L 353.87,288.51 L 354.45,287.27 L 355.47,284.73 L 355.76,283.41 L 356.18,280.73 L 356.17,279.36 L 356.01,276.60 L 355.71,275.19 L 354.95,272.38 L 354.35,270.97 L 353.01,268.16 L 352.12,266.77 L 350.18,264.00 L 348.99,262.65 L 346.88,259.91 L 346.39,259.13 L 346.24,258.82 L 346.00,258.27 L 346.00,258.12 L 346.52,257.63 L 347.37,257.38 L 348.04,257.28 L 349.56,257.12 L 350.56,257.07 L 352.71,257.00 L 354.02,257.00 L 356.62,257.01 L 358.03,257.03 L 358.60,257.05 L 359.65,257.11 L 360.07,257.16 L 360.83,257.28 L 361.12,257.37 L 362.07,257.80 L 362.36,258.19 L 362.86,259.08 L 363.12,259.75 L 363.50,261.42 L 363.69,263.00 L 363.75,263.95 L 363.88,268.07 L 363.76,270.19 L 362.92,276.63 L 361.90,280.62 L 361.16,282.46 L 359.52,286.05 L 358.47,287.68 L 356.21,290.85 L 354.86,292.28 L 351.99,295.03 L 350.33,296.25 L 346.86,298.58 L 344.89,299.59 L 340.82,301.50 L 338.55,302.30 L 333.87,303.78 L 331.30,304.37 L 329.25,304.78 L 328.06,304.95 L 325.58,305.27 L 324.23,305.40 L 318.58,305.80 L 315.63,305.85 L 309.74,305.85 L 307.06,305.70 L 304.44,305.52 L 303.27,305.39 L 301.01,305.10 L 300.07,304.91 L 291.45,302.67 L 285.42,300.60 L 282.42,299.34 L 276.46,296.71 L 273.69,295.25 L 268.31,292.24 L 266.00,290.68 L 263.72,288.98 L 261.86,287.48 L 260.84,286.62 L 256.61,282.93 L 254.75,281.15 L 248.00,274.67 L 248.00,257.00 L 251.33,257.00 M 225.54,146.19 L 231.50,146.50 L 232.02,221.00 L 224.18,221.00 L 221.08,220.95 L 219.21,220.86 L 218.44,220.80 L 217.02,220.67 L 216.54,220.59 L 215.76,220.42 L 215.67,220.33 L 215.53,219.46 L 215.45,218.17 L 215.41,217.21 L 215.33,215.08 L 215.29,213.74 L 215.23,210.87 L 215.20,209.20 L 215.14,205.69 L 215.11,203.73 L 215.07,199.69 L 215.05,197.51 L 215.02,193.03 L 215.01,190.66 L 215.00,185.85 L 215.00,147.04 L 217.29,146.46 L 218.65,146.26 L 219.91,146.17 L 220.66,146.15 L 223.90,146.11 M 124.95,146.05 L 127.44,146.12 L 128.80,146.20 L 131.61,146.39 L 133.06,146.53 L 138.95,147.16 L 141.63,147.59 L 144.24,148.04 L 145.38,148.28 L 147.53,148.77 L 148.38,149.03 L 152.77,150.68 L 155.73,152.06 L 157.20,152.88 L 160.15,154.62 L 161.61,155.60 L 164.51,157.65 L 165.93,158.78 L 168.74,161.10 L 170.09,162.36 L 172.76,164.93 L 174.02,166.29 L 176.51,169.07 L 177.66,170.52 L 179.92,173.47 L 180.95,175.00 L 183.57,179.01 L 184.26,180.12 L 184.54,180.58 L 185.05,181.44 L 185.22,181.76 L 185.52,182.32 L 185.59,182.47 L 185.65,182.68 L 185.58,182.63 L 185.38,182.44 L 185.17,182.18 L 184.67,181.54 L 184.30,181.03 L 179.25,174.39 L 175.87,170.24 L 174.25,168.39 L 171.07,164.86 L 169.64,163.42 L 168.24,162.05 L 167.59,161.45 L 166.33,160.34 L 165.77,159.89 L 159.64,155.66 L 155.23,153.18 L 152.98,152.17 L 148.48,150.30 L 146.33,149.65 L 144.20,149.06 L 143.18,148.84 L 141.19,148.46 L 140.25,148.37 L 134.00,147.72 L 134.00,221.00 L 126.17,221.00 L 123.07,220.95 L 121.21,220.86 L 120.44,220.80 L 119.02,220.67 L 118.54,220.59 L 117.76,220.42 L 117.67,220.33 L 117.53,219.46 L 117.45,218.17 L 117.41,217.21 L 117.33,215.08 L 117.29,213.74 L 117.23,210.87 L 117.20,209.20 L 117.14,205.69 L 117.11,203.73 L 117.07,199.69 L 117.05,197.51 L 117.02,193.03 L 117.01,190.66 L 117.00,185.85 L 117.00,147.04 L 119.61,146.38 L 121.79,146.10 L 123.77,146.04 M 313.13,145.29 L 319.49,145.62 L 322.46,145.98 L 325.38,146.37 L 326.73,146.61 L 329.34,147.13 L 330.50,147.44 L 338.03,149.99 L 343.14,152.22 L 345.54,153.50 L 350.18,156.13 L 352.11,157.48 L 353.97,158.83 L 354.77,159.50 L 356.26,160.82 L 356.85,161.45 L 361.00,165.96 L 361.00,176.98 L 360.97,181.26 L 360.92,183.76 L 360.88,184.76 L 360.80,186.57 L 360.75,187.13 L 360.70,187.63 L 360.67,187.78 L 360.62,188.00 L 360.59,188.00 L 359.99,187.34 L 359.20,186.29 L 358.66,185.53 L 357.48,183.86 L 356.79,182.86 L 355.36,180.75 L 354.59,179.59 L 349.27,172.42 L 345.47,168.06 L 343.45,166.10 L 339.35,162.34 L 337.19,160.68 L 332.82,157.52 L 330.54,156.18 L 325.93,153.65 L 323.55,152.63 L 318.74,150.76 L 316.27,150.07 L 311.30,148.87 L 308.76,148.52 L 303.65,148.01 L 301.07,148.02 L 294.30,148.55 L 289.98,149.37 L 287.95,149.99 L 283.98,151.36 L 282.17,152.24 L 278.66,154.10 L 277.10,155.19 L 274.15,157.48 L 272.91,158.75 L 270.60,161.39 L 269.72,162.81 L 268.17,165.72 L 267.71,167.26 L 267.00,170.38 L 267.00,171.99 L 267.68,176.91 L 268.80,180.27 L 269.68,181.98 L 271.66,185.42 L 272.97,187.15 L 275.79,190.63 L 277.50,192.38 L 281.12,195.88 L 283.23,197.62 L 287.63,201.11 L 290.12,202.84 L 295.27,206.29 L 298.12,207.99 L 303.99,211.36 L 307.19,213.02 L 311.78,215.46 L 314.46,216.97 L 315.53,217.60 L 316.55,218.22 L 316.98,218.49 L 317.77,219.00 L 318.07,219.21 L 318.60,219.60 L 318.76,219.75 L 319.00,220.00 L 319.00,220.06 L 318.88,220.20 L 318.66,220.26 L 318.09,220.38 L 317.66,220.44 L 316.68,220.55 L 316.05,220.60 L 314.70,220.69 L 313.90,220.74 L 312.20,220.81 L 311.24,220.85 L 309.23,220.91 L 308.13,220.93 L 303.43,221.00 L 300.75,221.00 L 297.07,220.99 L 294.84,220.98 L 293.83,220.97 L 290.06,220.91 L 288.51,220.84 L 285.63,220.65 L 284.44,220.49 L 282.22,220.11 L 281.28,219.82 L 279.49,219.16 L 278.68,218.71 L 277.11,217.73 L 276.32,217.08 L 274.72,215.68 L 273.83,214.81 L 271.99,212.93 L 270.89,211.79 L 266.03,205.68 L 263.46,201.31 L 262.51,199.03 L 260.83,194.40 L 260.33,192.04 L 259.55,187.29 L 259.50,184.92 L 259.62,180.19 L 260.03,177.88 L 261.06,173.30 L 261.91,171.12 L 263.85,166.84 L 265.16,164.85 L 266.53,162.90 L 267.30,161.97 L 268.89,160.14 L 269.77,159.28 L 272.11,157.25 L 273.90,155.91 L 274.89,155.26 L 279.07,152.70 L 281.40,151.56 L 286.18,149.37 L 288.65,148.49 L 293.61,146.89 L 296.00,146.39 L 299.67,145.79 L 302.39,145.50 L 303.86,145.41 L 309.96,145.19 Z" fill="rgb(226,226,226)"/>
<path d="M 0.00,250.00 L 0.00,0.00 L 250.00,0.00 L 500.00,0.00 L 500.00,250.00 L 500.00,500.00 L 250.00,500.00 L 0.00,500.00 L 0.00,250.00 M 166.00,340.50 L 166.00,339.26 L 165.71,337.32 L 165.62,336.91 L 165.39,336.36 L 165.00,336.00 L 164.86,336.00 L 164.61,336.36 L 164.49,336.58 L 164.29,337.32 L 164.00,340.50 L 164.00,341.74 L 164.29,343.68 L 164.38,344.09 L 164.61,344.64 L 165.00,345.00 L 165.14,345.00 L 165.39,344.64 L 165.51,344.42 L 165.71,343.68 L 165.89,342.86 M 334.00,341.07 L 334.00,340.35 L 334.09,339.21 L 334.15,338.69 L 334.39,337.92 L 334.53,337.58 L 334.93,337.11 L 335.75,336.69 L 336.02,336.62 L 336.29,336.49 L 336.37,336.43 L 336.29,336.32 L 336.20,336.27 L 335.77,336.20 L 334.75,336.12 L 334.10,336.09 L 333.22,336.15 L 332.84,336.23 L 332.40,336.67 L 332.22,336.95 L 332.06,338.00 L 332.00,340.50 L 332.00,341.74 L 332.29,343.68 L 332.38,344.09 L 332.61,344.64 L 333.00,345.00 L 333.14,345.00 L 333.39,344.69 L 333.51,344.49 L 333.71,343.85 L 333.89,343.13 M 252.59,339.26 L 252.32,338.98 L 251.85,338.92 L 251.64,338.96 L 251.36,339.39 L 251.24,339.66 L 251.21,340.41 L 251.53,341.71 L 251.72,342.14 L 251.98,342.67 L 252.09,342.88 L 252.26,342.99 L 252.34,342.98 L 252.48,342.66 L 252.74,341.67 L 252.86,341.17 L 252.88,340.21 L 252.85,339.77 M 306.59,339.26 L 306.32,338.98 L 305.85,338.92 L 305.64,338.96 L 305.36,339.39 L 305.24,339.66 L 305.21,340.41 L 305.53,341.71 L 305.72,342.14 L 305.98,342.67 L 306.09,342.88 L 306.26,342.99 L 306.34,342.98 L 306.48,342.66 L 306.74,341.67 L 306.86,341.17 L 306.88,340.21 L 306.85,339.77 M 134.00,281.46 L 134.00,256.92 L 125.75,257.21 L 117.50,257.50 L 117.23,281.75 L 116.96,306.00 L 125.48,306.00 L 134.00,306.00 L 134.00,281.46 M 232.00,281.46 L 232.00,256.92 L 223.75,257.21 L 215.50,257.50 L 214.97,262.50 L 214.45,267.50 L 213.64,263.26 L 213.41,262.09 L 212.80,260.09 L 212.65,259.66 L 212.34,259.01 L 211.93,258.46 L 211.80,258.38 L 211.62,258.46 L 211.54,258.54 L 211.44,258.89 L 211.52,260.70 L 211.67,261.55 L 211.97,263.57 L 212.13,264.63 L 212.43,267.01 L 212.73,269.46 L 213.31,275.12 L 213.59,278.03 L 214.09,284.16 L 214.66,293.25 L 215.31,306.00 L 223.65,306.00 L 232.00,306.00 L 232.00,281.46 M 331.30,304.37 L 333.87,303.78 L 338.55,302.30 L 340.82,301.50 L 344.89,299.59 L 346.86,298.58 L 350.33,296.25 L 351.99,295.03 L 354.86,292.28 L 356.21,290.85 L 358.47,287.68 L 359.52,286.05 L 361.16,282.46 L 361.90,280.62 L 362.92,276.63 L 363.76,270.19 L 363.88,268.07 L 363.75,263.95 L 363.69,263.00 L 363.50,261.42 L 363.12,259.75 L 362.86,259.08 L 362.36,258.19 L 362.07,257.80 L 361.12,257.37 L 360.83,257.28 L 360.07,257.16 L 359.65,257.11 L 358.60,257.05 L 358.03,257.03 L 356.62,257.01 L 354.02,257.00 L 352.71,257.00 L 350.56,257.07 L 349.56,257.12 L 348.04,257.28 L 347.37,257.38 L 346.52,257.63 L 346.00,258.12 L 346.00,258.27 L 346.24,258.82 L 346.39,259.13 L 346.88,259.91 L 348.99,262.65 L 350.18,264.00 L 352.12,266.77 L 353.01,268.16 L 354.35,270.97 L 354.95,272.38 L 355.71,275.19 L 356.01,276.60 L 356.17,279.36 L 356.18,280.73 L 355.76,283.41 L 355.47,284.73 L 354.45,287.27 L 353.87,288.51 L 352.26,290.87 L 349.19,294.14 L 347.63,295.51 L 343.99,297.89 L 342.11,299.01 L 337.99,300.83 L 335.89,301.67 L 331.49,302.85 L 324.82,303.80 L 322.28,303.95 L 317.50,303.81 L 315.14,303.66 L 310.56,302.90 L 308.27,302.44 L 303.67,301.01 L 296.50,298.07 L 294.69,297.21 L 291.12,295.27 L 289.35,294.26 L 285.89,292.01 L 284.17,290.85 L 280.83,288.31 L 279.18,287.01 L 275.99,284.21 L 274.41,282.78 L 271.38,279.73 L 269.88,278.18 L 267.03,274.90 L 265.64,273.24 L 262.99,269.75 L 259.28,264.30 L 258.75,263.47 L 257.85,262.07 L 257.42,261.41 L 256.68,260.34 L 256.32,259.84 L 255.70,259.06 L 255.40,258.69 L 254.86,258.15 L 254.32,257.65 L 253.26,257.20 L 251.33,257.00 L 248.00,257.00 L 248.00,265.84 L 248.00,274.67 L 254.75,281.15 L 256.61,282.93 L 260.84,286.62 L 261.86,287.48 L 263.72,288.98 L 266.00,290.68 L 268.31,292.24 L 273.69,295.25 L 276.46,296.71 L 282.42,299.34 L 285.42,300.60 L 291.45,302.67 L 300.07,304.91 L 301.01,305.10 L 303.27,305.39 L 304.44,305.52 L 307.06,305.70 L 309.74,305.85 L 315.63,305.85 L 318.58,305.80 L 324.23,305.40 L 325.58,305.27 L 328.06,304.95 L 329.25,304.78 M 157.06,248.00 L 157.18,248.00 L 157.53,247.81 L 157.72,247.68 L 158.16,247.29 L 159.55,245.57 L 160.06,244.79 L 160.43,243.26 L 160.52,242.52 L 160.11,241.15 L 159.81,240.51 L 158.67,239.46 L 156.22,238.39 L 155.16,238.15 L 153.31,237.45 L 152.45,237.08 L 151.10,236.21 L 150.50,235.76 L 149.80,234.84 L 149.64,233.50 L 149.74,233.24 L 150.17,232.82 L 150.42,232.63 L 151.09,232.35 L 151.80,232.10 L 153.58,231.99 L 154.48,232.01 L 156.15,232.43 L 156.53,232.56 L 157.15,232.93 L 157.81,233.63 L 158.14,234.21 L 158.68,234.61 L 159.45,234.08 L 159.78,233.55 L 159.69,232.55 L 159.54,232.07 L 158.62,231.25 L 158.07,230.87 L 156.47,230.34 L 153.50,230.00 L 152.27,230.00 L 150.34,230.36 L 149.46,230.60 L 148.20,231.34 L 147.66,231.75 L 147.06,232.77 L 146.84,233.29 L 146.88,234.46 L 146.98,235.05 L 147.64,236.25 L 148.05,236.84 L 149.31,237.96 L 150.01,238.50 L 151.85,239.43 L 155.25,240.48 L 156.09,240.65 L 157.21,241.41 L 157.67,241.83 L 157.99,242.91 L 158.05,243.46 L 157.56,244.59 L 155.88,246.06 L 155.45,246.30 L 154.70,246.55 L 154.34,246.63 L 153.62,246.57 L 153.25,246.50 L 152.43,246.11 L 150.92,245.10 L 150.07,244.47 L 148.88,243.67 L 148.35,243.34 L 147.69,243.12 L 147.41,243.08 L 147.14,243.42 L 147.00,244.55 L 147.00,244.77 L 147.25,245.25 L 147.41,245.49 L 147.94,245.99 L 148.51,246.50 L 150.15,247.43 L 151.00,247.85 L 152.74,248.40 L 153.16,248.50 L 153.91,248.57 L 154.83,248.46 L 155.20,248.34 L 156.04,248.14 L 156.44,248.05 M 282.81,247.92 L 283.60,247.64 L 284.84,246.93 L 285.41,246.55 L 286.21,245.68 L 286.55,245.23 L 286.92,244.25 L 287.05,243.76 L 286.99,242.75 L 286.91,242.25 L 286.44,241.26 L 286.16,240.77 L 285.28,239.87 L 284.80,239.43 L 283.53,238.67 L 281.20,237.76 L 280.31,237.51 L 278.96,237.03 L 278.36,236.79 L 277.52,236.29 L 277.15,236.04 L 276.73,235.47 L 276.50,234.47 L 276.50,234.13 L 276.77,233.55 L 276.94,233.28 L 277.48,232.84 L 278.08,232.43 L 279.78,232.08 L 280.66,231.98 L 282.43,232.29 L 282.84,232.41 L 283.57,232.79 L 284.44,233.58 L 284.84,234.14 L 285.54,234.58 L 286.36,234.23 L 286.50,234.00 L 286.58,233.51 L 286.59,233.26 L 286.42,232.77 L 286.19,232.29 L 285.12,231.41 L 284.50,231.00 L 282.84,230.39 L 279.99,230.00 L 279.27,230.00 L 278.09,230.12 L 277.54,230.20 L 276.63,230.49 L 276.21,230.67 L 275.49,231.17 L 274.57,232.20 L 274.04,232.96 L 273.73,234.43 L 273.70,235.15 L 274.39,236.50 L 274.85,237.17 L 276.50,238.38 L 280.04,240.00 L 280.69,240.23 L 281.78,240.67 L 282.29,240.89 L 283.10,241.32 L 283.47,241.54 L 284.01,241.97 L 284.25,242.19 L 284.53,242.62 L 284.73,243.06 L 284.35,243.99 L 282.63,245.51 L 282.14,245.83 L 281.32,246.25 L 280.93,246.43 L 280.22,246.57 L 279.88,246.61 L 279.19,246.50 L 278.07,246.04 L 277.50,245.73 L 276.61,244.97 L 276.00,243.96 L 276.00,243.70 L 275.56,243.28 L 274.50,243.00 L 274.09,243.00 L 273.44,243.25 L 273.00,243.85 L 273.00,244.11 L 273.50,244.88 L 273.81,245.29 L 274.75,246.18 L 275.24,246.63 L 276.37,247.43 L 278.00,248.29 L 278.41,248.44 L 279.09,248.70 L 279.60,248.92 L 279.61,248.93 L 279.89,248.87 L 280.06,248.82 L 280.59,248.66 L 281.17,248.48 M 344.75,247.73 L 345.25,247.75 L 345.95,247.63 L 346.25,247.53 L 346.63,247.05 L 346.78,246.75 L 346.93,245.73 L 347.00,243.39 L 347.00,242.30 L 346.94,240.86 L 346.88,240.25 L 346.55,239.56 L 346.32,239.28 L 345.49,239.07 L 343.44,239.00 L 342.91,239.00 L 342.04,239.07 L 341.63,239.12 L 341.04,239.28 L 340.78,239.36 L 340.51,239.59 L 340.50,240.00 L 340.67,240.27 L 341.51,240.71 L 343.06,241.00 L 343.65,241.00 L 344.41,241.16 L 344.72,241.27 L 344.90,241.69 L 344.92,241.94 L 344.55,242.67 L 343.35,244.17 L 342.80,244.77 L 341.47,245.51 L 340.79,245.80 L 339.37,245.93 L 338.67,245.92 L 337.42,245.45 L 336.04,244.07 L 335.68,243.41 L 335.26,241.46 L 335.09,240.44 L 335.04,238.20 L 335.05,237.10 L 335.35,235.15 L 335.45,234.71 L 335.71,233.98 L 336.20,233.20 L 336.70,232.70 L 338.09,232.17 L 338.82,231.98 L 340.40,232.03 L 341.18,232.12 L 342.58,232.69 L 344.06,234.11 L 344.26,234.49 L 344.64,235.02 L 344.82,235.24 L 345.18,235.48 L 345.35,235.56 L 345.71,235.51 L 346.27,235.13 L 346.51,234.89 L 346.72,234.36 L 346.79,234.09 L 346.69,233.52 L 346.52,232.95 L 345.42,231.85 L 344.78,231.33 L 342.99,230.53 L 339.92,230.00 L 339.10,230.00 L 337.62,230.33 L 336.91,230.54 L 335.66,231.25 L 335.06,231.65 L 334.07,232.67 L 333.61,233.22 L 332.90,234.50 L 332.58,235.16 L 332.19,236.64 L 332.03,237.39 L 331.99,238.99 L 332.01,239.80 L 332.34,241.47 L 333.28,243.98 L 333.66,244.72 L 334.82,246.03 L 335.45,246.65 L 336.91,247.60 L 337.65,248.02 L 339.11,248.45 L 341.00,248.33 L 341.41,248.15 L 342.72,247.89 L 343.40,247.78 M 113.20,241.25 L 113.50,234.50 L 118.00,241.23 L 118.62,242.15 L 119.85,243.84 L 120.45,244.65 L 121.55,245.99 L 122.07,246.60 L 122.91,247.44 L 123.75,247.98 L 123.98,247.98 L 124.33,247.50 L 124.49,247.17 L 124.72,245.95 L 124.82,245.24 L 124.93,243.17 L 125.00,239.00 L 125.00,238.10 L 124.99,236.55 L 124.98,235.81 L 124.94,234.56 L 124.89,233.37 L 124.71,231.80 L 124.60,231.12 L 124.26,230.39 L 123.55,230.00 L 123.28,230.00 L 122.85,230.32 L 122.65,230.54 L 122.35,231.38 L 122.21,231.87 L 122.01,233.31 L 121.80,236.25 L 121.50,242.50 L 117.21,236.25 L 116.45,235.14 L 115.16,233.37 L 114.55,232.56 L 113.53,231.38 L 113.05,230.87 L 112.27,230.29 L 111.90,230.08 L 111.33,230.13 L 111.07,230.23 L 110.68,230.90 L 110.51,231.31 L 110.27,232.62 L 110.17,233.36 L 110.06,235.32 L 110.00,239.00 L 110.00,239.90 L 110.01,241.46 L 110.02,242.19 L 110.06,243.45 L 110.11,244.63 L 110.29,246.20 L 110.40,246.88 L 110.74,247.61 L 111.45,248.00 L 111.73,248.00 L 112.16,247.66 L 112.36,247.43 L 112.66,246.54 L 112.79,246.01 L 112.99,244.46 L 113.08,243.59 M 172.00,244.00 L 172.00,240.00 L 177.00,240.00 L 182.00,240.00 L 182.00,244.00 L 182.00,245.10 L 182.29,246.82 L 182.38,247.19 L 182.61,247.68 L 183.00,248.00 L 183.15,248.00 L 183.41,247.34 L 183.53,246.92 L 183.72,245.50 L 183.81,244.71 L 183.93,242.66 L 184.00,239.00 L 184.00,237.90 L 183.93,235.94 L 183.89,235.00 L 183.74,233.42 L 183.66,232.68 L 183.47,231.51 L 183.36,230.99 L 183.13,230.30 L 183.02,230.02 L 182.77,229.84 L 182.65,229.83 L 182.41,230.22 L 182.29,230.49 L 182.08,231.50 L 181.81,233.75 L 181.73,234.68 L 181.55,235.91 L 181.43,236.44 L 180.93,237.06 L 180.61,237.31 L 179.48,237.57 L 176.75,237.80 L 172.00,238.11 L 172.00,234.05 L 172.00,232.94 L 171.71,231.19 L 171.62,230.82 L 171.39,230.32 L 171.00,230.00 L 170.85,230.00 L 170.59,230.66 L 170.47,231.08 L 170.28,232.50 L 170.19,233.29 L 170.07,235.34 L 170.00,239.00 L 170.00,240.33 L 170.07,242.66 L 170.12,243.75 L 170.28,245.50 L 170.37,246.29 L 170.59,247.34 L 171.00,248.00 L 171.14,248.00 L 171.39,247.68 L 171.51,247.48 L 171.71,246.82 L 171.89,246.10 M 196.59,245.50 L 196.72,244.97 L 197.06,244.21 L 197.25,243.87 L 197.81,243.45 L 198.13,243.27 L 199.09,243.09 L 201.13,243.00 L 201.95,243.00 L 203.16,243.10 L 203.70,243.17 L 204.49,243.47 L 204.85,243.65 L 205.36,244.23 L 206.00,245.50 L 206.23,246.12 L 206.95,247.08 L 207.32,247.50 L 208.06,247.96 L 208.40,248.11 L 208.83,247.93 L 208.91,247.83 L 208.94,247.50 L 208.77,246.75 L 208.16,245.05 L 207.10,242.13 L 206.60,240.74 L 205.73,238.40 L 205.31,237.30 L 204.60,235.48 L 204.26,234.63 L 203.69,233.28 L 203.41,232.66 L 202.95,231.72 L 202.73,231.29 L 202.35,230.71 L 202.17,230.45 L 201.86,230.16 L 201.43,230.00 L 201.00,230.00 L 200.38,230.17 L 200.08,230.34 L 199.47,231.28 L 199.30,231.59 L 198.91,232.46 L 198.70,232.94 L 198.21,234.20 L 197.94,234.89 L 197.30,236.61 L 196.13,239.81 L 195.84,240.60 L 195.36,241.97 L 195.13,242.63 L 194.76,243.75 L 194.42,244.81 L 194.07,246.27 L 193.95,246.90 L 194.02,247.61 L 194.55,248.00 L 194.94,248.00 L 195.73,247.27 L 196.10,246.81 M 220.00,241.50 L 220.00,240.61 L 220.06,238.98 L 220.10,238.20 L 220.22,236.92 L 220.29,236.33 L 220.46,235.53 L 220.75,235.03 L 220.85,235.04 L 221.39,235.55 L 221.70,235.89 L 222.56,236.95 L 223.02,237.54 L 224.11,239.02 L 225.86,241.53 L 226.46,242.42 L 227.62,244.04 L 228.19,244.82 L 229.20,246.10 L 229.68,246.69 L 230.42,247.49 L 231.11,248.00 L 231.23,248.00 L 231.46,247.29 L 231.56,246.83 L 231.74,245.36 L 231.82,244.54 L 231.93,242.49 L 232.00,239.00 L 232.00,237.67 L 231.93,235.34 L 231.88,234.25 L 231.72,232.50 L 231.63,231.71 L 231.41,230.66 L 231.00,230.00 L 230.86,230.00 L 230.61,230.47 L 230.49,230.77 L 230.29,231.75 L 230.20,232.29 L 230.08,233.66 L 230.00,236.00 L 230.00,236.82 L 229.94,238.33 L 229.90,239.05 L 229.78,240.23 L 229.71,240.78 L 229.54,241.52 L 229.25,241.99 L 229.15,241.99 L 228.65,241.52 L 228.37,241.21 L 227.59,240.23 L 227.17,239.68 L 226.20,238.32 L 224.64,235.99 L 223.95,234.92 L 222.77,233.21 L 222.22,232.43 L 221.28,231.30 L 220.84,230.81 L 220.12,230.28 L 219.78,230.08 L 219.26,230.15 L 219.01,230.26 L 218.65,230.94 L 218.49,231.36 L 218.26,232.67 L 218.17,233.40 L 218.06,235.35 L 218.00,239.00 L 218.00,240.33 L 218.07,242.66 L 218.12,243.75 L 218.28,245.50 L 218.37,246.29 L 218.59,247.34 L 219.00,248.00 L 219.14,248.00 L 219.39,247.50 L 219.51,247.18 L 219.71,246.12 L 219.80,245.54 L 219.92,244.06 L 219.97,243.28 M 249.00,240.00 L 249.00,239.02 L 249.01,237.40 L 249.01,236.64 L 249.04,235.43 L 249.07,234.87 L 249.14,234.01 L 249.19,233.62 L 249.33,233.05 L 249.49,232.54 L 250.07,232.14 L 251.50,232.00 L 252.19,232.00 L 253.27,231.71 L 254.00,231.00 L 254.00,230.86 L 253.47,230.60 L 253.12,230.48 L 251.99,230.29 L 251.36,230.20 L 249.75,230.08 L 246.94,230.00 L 245.83,230.00 L 244.00,230.07 L 243.16,230.11 L 241.91,230.26 L 241.35,230.35 L 240.72,230.58 L 240.50,231.00 L 240.67,231.27 L 241.65,231.71 L 243.56,232.00 L 244.16,232.00 L 244.95,232.15 L 245.29,232.29 L 245.67,233.07 L 245.75,233.33 L 245.86,234.03 L 245.90,234.43 L 245.95,235.45 L 245.98,236.01 L 245.99,237.41 L 246.00,240.00 L 246.00,240.81 L 246.01,242.19 L 246.03,242.85 L 246.06,243.97 L 246.11,245.02 L 246.30,246.42 L 246.41,247.01 L 246.76,247.66 L 247.50,248.00 L 247.80,248.00 L 248.24,247.66 L 248.44,247.41 L 248.70,246.42 L 248.82,245.82 L 248.94,243.97 L 248.96,243.44 L 248.99,242.19 L 249.00,241.53 M 298.00,239.00 L 298.00,237.67 L 297.93,235.34 L 297.88,234.25 L 297.72,232.50 L 297.63,231.71 L 297.41,230.66 L 297.00,230.00 L 296.85,230.00 L 296.59,230.66 L 296.47,231.08 L 296.28,232.50 L 296.19,233.29 L 296.07,235.34 L 296.00,239.00 L 296.00,240.33 L 296.07,242.66 L 296.12,243.75 L 296.28,245.50 L 296.37,246.29 L 296.59,247.34 L 297.00,248.00 L 297.15,248.00 L 297.41,247.34 L 297.53,246.92 L 297.72,245.50 L 297.81,244.71 L 297.93,242.66 L 297.97,241.56 M 359.00,244.00 L 359.00,240.00 L 364.00,240.00 L 369.00,240.00 L 369.00,244.00 L 369.00,244.72 L 369.08,245.84 L 369.14,246.35 L 369.34,247.08 L 369.46,247.40 L 369.81,247.78 L 370.50,248.00 L 370.81,248.00 L 371.25,247.62 L 371.45,247.35 L 371.71,246.25 L 371.76,245.92 L 371.85,245.07 L 371.89,244.61 L 371.94,243.50 L 371.96,242.91 L 371.99,241.49 L 372.00,239.00 L 372.00,238.10 L 371.99,236.56 L 371.97,235.82 L 371.94,234.57 L 371.89,233.39 L 371.71,231.81 L 371.60,231.14 L 371.27,230.40 L 370.56,230.00 L 370.32,230.00 L 369.92,230.24 L 369.73,230.40 L 369.41,230.96 L 369.26,231.27 L 369.04,232.13 L 368.81,233.75 L 368.73,234.68 L 368.56,235.91 L 368.44,236.44 L 367.97,237.02 L 367.67,237.26 L 366.60,237.44 L 364.00,237.50 L 362.88,237.50 L 361.40,237.44 L 360.77,237.38 L 360.03,237.02 L 359.73,236.79 L 359.44,235.91 L 359.19,233.75 L 359.11,232.83 L 358.92,231.50 L 358.82,230.91 L 358.59,230.22 L 358.47,229.95 L 358.23,229.84 L 358.11,229.86 L 357.87,230.30 L 357.75,230.58 L 357.53,231.51 L 357.43,232.04 L 357.26,233.42 L 357.18,234.16 L 357.07,235.94 L 357.00,239.00 L 357.00,240.33 L 357.07,242.66 L 357.12,243.75 L 357.28,245.50 L 357.37,246.29 L 357.59,247.34 L 358.00,248.00 L 358.14,248.00 L 358.39,247.68 L 358.51,247.48 L 358.71,246.82 L 358.89,246.10 M 134.00,184.36 L 134.00,147.72 L 140.25,148.37 L 141.19,148.46 L 143.18,148.84 L 144.20,149.06 L 146.33,149.65 L 148.48,150.30 L 152.98,152.17 L 155.23,153.18 L 159.64,155.66 L 165.77,159.89 L 166.33,160.34 L 167.59,161.45 L 168.24,162.05 L 169.64,163.42 L 171.07,164.86 L 174.25,168.39 L 175.87,170.24 L 179.25,174.39 L 184.30,181.03 L 184.67,181.54 L 185.17,182.18 L 185.38,182.44 L 185.58,182.63 L 185.65,182.68 L 185.59,182.47 L 185.52,182.32 L 185.22,181.76 L 185.05,181.44 L 184.54,180.58 L 184.26,180.12 L 183.57,179.01 L 180.95,175.00 L 179.92,173.47 L 177.66,170.52 L 176.51,169.07 L 174.02,166.29 L 172.76,164.93 L 170.09,162.36 L 168.74,161.10 L 165.93,158.78 L 164.51,157.65 L 161.61,155.60 L 160.15,154.62 L 157.20,152.88 L 155.73,152.06 L 152.77,150.68 L 148.38,149.03 L 147.53,148.77 L 145.38,148.28 L 144.24,148.04 L 141.63,147.59 L 138.95,147.16 L 133.06,146.53 L 131.61,146.39 L 128.80,146.20 L 127.44,146.12 L 124.95,146.05 L 123.77,146.04 L 121.79,146.10 L 119.61,146.38 L 117.00,147.04 L 117.00,183.35 L 117.00,185.85 L 117.01,190.66 L 117.02,193.03 L 117.05,197.51 L 117.07,199.69 L 117.11,203.73 L 117.14,205.69 L 117.20,209.20 L 117.23,210.87 L 117.29,213.74 L 117.33,215.08 L 117.41,217.21 L 117.45,218.17 L 117.53,219.46 L 117.67,220.33 L 117.76,220.42 L 118.54,220.59 L 119.02,220.67 L 120.44,220.80 L 121.21,220.86 L 123.07,220.95 L 126.17,221.00 L 134.00,221.00 L 134.00,184.36 M 231.76,183.75 L 231.50,146.50 L 225.54,146.19 L 223.90,146.11 L 220.66,146.15 L 219.91,146.17 L 218.65,146.26 L 217.29,146.46 L 215.00,147.04 L 215.00,183.35 L 215.00,185.85 L 215.01,190.66 L 215.02,193.03 L 215.05,197.51 L 215.07,199.69 L 215.11,203.73 L 215.14,205.69 L 215.20,209.20 L 215.23,210.87 L 215.29,213.74 L 215.33,215.08 L 215.41,217.21 L 215.45,218.17 L 215.53,219.46 L 215.67,220.33 L 215.76,220.42 L 216.54,220.59 L 217.02,220.67 L 218.44,220.80 L 219.21,220.86 L 221.08,220.95 L 224.18,221.00 L 232.02,221.00 L 231.76,183.75 M 319.00,220.06 L 319.00,220.00 L 318.76,219.75 L 318.60,219.60 L 318.07,219.21 L 317.77,219.00 L 316.98,218.49 L 316.55,218.22 L 315.53,217.60 L 314.46,216.97 L 311.78,215.46 L 307.19,213.02 L 303.99,211.36 L 298.12,207.99 L 295.27,206.29 L 290.12,202.84 L 287.63,201.11 L 283.23,197.62 L 281.12,195.88 L 277.50,192.38 L 275.79,190.63 L 272.97,187.15 L 271.66,185.42 L 269.68,181.98 L 268.80,180.27 L 267.68,176.91 L 267.00,171.99 L 267.00,170.38 L 267.71,167.26 L 268.17,165.72 L 269.72,162.81 L 270.60,161.39 L 272.91,158.75 L 274.15,157.48 L 277.10,155.19 L 278.66,154.10 L 282.17,152.24 L 283.98,151.36 L 287.95,149.99 L 289.98,149.37 L 294.30,148.55 L 301.07,148.02 L 303.65,148.01 L 308.76,148.52 L 311.30,148.87 L 316.27,150.07 L 318.74,150.76 L 323.55,152.63 L 325.93,153.65 L 330.54,156.18 L 332.82,157.52 L 337.19,160.68 L 339.35,162.34 L 343.45,166.10 L 345.47,168.06 L 349.27,172.42 L 354.59,179.59 L 355.36,180.75 L 356.79,182.86 L 357.48,183.86 L 358.66,185.53 L 359.20,186.29 L 359.99,187.34 L 360.59,188.00 L 360.62,188.00 L 360.67,187.78 L 360.70,187.63 L 360.75,187.13 L 360.80,186.57 L 360.88,184.76 L 360.92,183.76 L 360.97,181.26 L 361.00,176.98 L 361.00,165.96 L 356.85,161.45 L 356.26,160.82 L 354.77,159.50 L 353.97,158.83 L 352.11,157.48 L 350.18,156.13 L 345.54,153.50 L 343.14,152.22 L 338.03,149.99 L 330.50,147.44 L 329.34,147.13 L 326.73,146.61 L 325.38,146.37 L 322.46,145.98 L 319.49,145.62 L 313.13,145.29 L 309.96,145.19 L 303.86,145.41 L 302.39,145.50 L 299.67,145.79 L 296.00,146.39 L 293.61,146.89 L 288.65,148.49 L 286.18,149.37 L 281.40,151.56 L 279.07,152.70 L 274.89,155.26 L 273.90,155.91 L 272.11,157.25 L 269.77,159.28 L 268.89,160.14 L 267.30,161.97 L 266.53,162.90 L 265.16,164.85 L 263.85,166.84 L 261.91,171.12 L 261.06,173.30 L 260.03,177.88 L 259.62,180.19 L 259.50,184.92 L 259.55,187.29 L 260.33,192.04 L 260.83,194.40 L 262.51,199.03 L 263.46,201.31 L 266.03,205.68 L 270.89,211.79 L 271.99,212.93 L 273.83,214.81 L 274.72,215.68 L 276.32,217.08 L 277.11,217.73 L 278.68,218.71 L 279.49,219.16 L 281.28,219.82 L 282.22,220.11 L 284.44,220.49 L 285.63,220.65 L 288.51,220.84 L 290.06,220.91 L 293.83,220.97 L 294.84,220.98 L 297.07,220.99 L 300.75,221.00 L 303.43,221.00 L 308.13,220.93 L 309.23,220.91 L 311.24,220.85 L 312.20,220.81 L 313.90,220.74 L 314.70,220.69 L 316.05,220.60 L 316.68,220.55 L 317.66,220.44 L 318.09,220.38 L 318.66,220.26 L 318.88,220.20 M 199.37,237.91 L 199.55,237.01 L 199.98,235.46 L 200.08,235.11 L 200.28,234.59 L 200.53,234.14 L 200.75,233.92 L 201.28,234.01 L 201.55,234.13 L 202.10,234.78 L 202.36,235.16 L 202.80,236.20 L 203.22,238.02 L 203.28,238.51 L 203.25,239.24 L 203.21,239.58 L 202.95,240.06 L 202.79,240.27 L 202.26,240.56 L 201.11,240.84 L 200.55,240.91 L 199.82,240.94 L 199.50,240.91 L 199.18,240.62 L 199.07,240.43 L 199.07,239.68 L 199.11,239.24 Z" fill="rgb(254,254,254)"/>
</g>
</svg>