<svg xmlns="http://www.w3.org/2000/svg" width="500" height="500" viewBox="0 0 500 500">
<g>
<path d="M 153.89,339.50 L 153.99,340.17 L 154.28,341.26 L 154.43,341.76 L 154.79,342.53 L 154.97,342.87 L 155.37,343.31 L 155.58,343.49 L 155.99,343.60 L 156.20,343.61 L 156.59,343.39 L 156.79,343.24 L 157.13,342.68 L 157.29,342.36 L 157.55,341.47 L 157.81,339.75 L 157.90,338.72 L 158.31,337.10 L 158.42,336.76 L 158.67,336.30 L 159.06,336.00 L 159.19,336.00 L 159.41,336.22 L 159.52,336.36 L 159.69,336.81 L 159.84,337.32 L 159.97,338.79 L 160.01,339.57 L 159.88,341.23 L 159.39,343.42 L 159.24,343.81 L 158.42,344.40 L 157.96,344.66 L 156.78,344.94 L 156.18,345.04 L 155.01,344.95 L 154.46,344.85 L 153.67,344.33 L 153.57,344.24 L 153.42,343.75 L 153.35,343.47 L 153.24,342.66 L 153.14,339.58 L 153.28,335.50 M 314.25,336.19 L 314.87,336.25 L 315.80,336.43 L 316.22,336.54 L 316.80,336.86 L 317.06,337.04 L 317.34,337.53 L 317.50,338.50 L 317.50,339.06 L 316.85,340.21 L 315.25,341.49 L 314.63,341.76 L 313.66,342.56 L 313.00,343.74 L 313.00,344.08 L 312.71,344.63 L 312.00,345.00 L 311.86,345.00 L 311.61,344.64 L 311.49,344.41 L 311.29,343.66 L 311.11,342.83 L 311.00,340.44 L 311.00,339.30 L 311.05,337.81 L 311.10,337.17 L 311.41,336.49 L 311.61,336.22 L 312.38,336.08 M 199.05,336.20 L 199.92,336.25 L 200.30,336.27 L 200.81,336.36 L 201.01,336.40 L 201.11,336.51 L 200.75,336.69 L 200.43,336.77 L 199.93,337.11 L 199.71,337.31 L 199.39,337.92 L 199.25,338.27 L 199.09,339.21 L 199.00,341.07 L 199.00,342.15 L 198.71,343.85 L 198.62,344.20 L 198.39,344.69 L 198.00,345.00 L 197.86,345.00 L 197.61,344.69 L 197.49,344.49 L 197.29,343.85 L 197.11,343.14 L 197.00,341.08 L 197.00,339.98 L 196.64,338.15 L 196.53,337.76 L 196.24,337.16 L 195.75,336.66 L 195.58,336.59 L 195.58,336.47 L 195.63,336.41 L 196.04,336.32 L 196.29,336.27 L 197.05,336.22 L 198.50,336.19 M 338.70,340.54 L 338.66,341.59 L 338.56,342.97 L 338.50,343.55 L 338.32,344.08 L 338.22,344.24 L 337.88,344.04 L 337.13,343.04 L 336.69,342.39 L 335.90,341.58 L 335.53,341.25 L 334.91,341.08 L 334.63,341.08 L 334.24,341.56 L 334.00,343.00 L 334.00,343.55 L 333.71,344.41 L 333.00,345.00 L 332.86,345.00 L 332.61,344.64 L 332.49,344.42 L 332.29,343.68 L 332.11,342.86 L 332.00,340.50 L 332.00,339.38 L 332.06,337.91 L 332.11,337.28 L 332.44,336.58 L 332.66,336.29 L 333.47,336.08 L 335.45,336.00 L 338.91,336.00 M 209.25,336.25 L 209.59,336.55 L 209.76,336.73 L 210.13,337.30 L 210.32,337.62 L 210.72,338.45 L 211.39,340.02 L 211.65,340.67 L 212.07,341.76 L 212.27,342.27 L 212.55,343.08 L 212.68,343.45 L 212.82,343.99 L 212.88,344.24 L 212.88,344.53 L 212.86,344.65 L 212.72,344.72 L 212.63,344.73 L 212.34,344.58 L 210.91,343.42 L 210.42,342.97 L 209.72,342.41 L 209.41,342.18 L 208.94,342.06 L 208.72,342.04 L 208.30,342.34 L 207.55,343.26 L 207.14,343.83 L 206.41,344.53 L 206.06,344.81 L 205.56,344.95 L 205.35,344.94 L 205.20,344.52 L 205.18,344.24 L 205.50,343.25 L 205.69,342.77 L 206.29,341.21 L 207.20,338.75 L 207.54,337.81 L 208.16,336.70 L 208.47,336.28 L 209.09,336.21 M 267.76,336.26 L 267.90,336.42 L 268.24,336.95 L 269.41,339.25 L 270.82,342.50 L 272.13,339.25 L 272.38,338.63 L 272.82,337.67 L 273.03,337.24 L 273.39,336.64 L 273.55,336.38 L 273.81,336.12 L 273.92,336.03 L 274.07,336.10 L 274.13,336.17 L 274.15,336.55 L 274.15,336.77 L 274.04,337.45 L 273.96,337.82 L 273.70,338.77 L 273.13,340.50 L 272.91,341.13 L 272.49,342.18 L 272.29,342.66 L 271.92,343.44 L 271.73,343.79 L 271.39,344.30 L 271.23,344.51 L 270.91,344.75 L 270.60,344.93 L 270.01,344.51 L 269.71,344.17 L 269.11,342.75 L 268.69,341.64 L 268.07,339.83 L 267.79,338.99 L 267.44,337.71 L 267.30,337.15 L 267.22,336.43 L 267.43,336.00 L 267.51,336.00 M 174.59,336.79 L 175.00,337.50 L 175.24,338.05 L 175.63,339.55 L 175.93,341.68 L 175.95,342.40 L 176.55,343.42 L 178.25,344.29 L 178.66,344.37 L 179.11,344.50 L 179.28,344.56 L 179.24,344.66 L 179.16,344.71 L 178.63,344.78 L 177.25,344.86 L 176.44,344.90 L 175.38,344.87 L 174.92,344.81 L 174.42,344.38 L 174.22,344.09 L 174.08,342.99 L 174.06,342.65 L 174.05,341.81 L 174.05,341.36 L 174.07,340.25 L 174.08,339.36 L 174.15,338.10 L 174.19,337.56 L 174.31,336.97 L 174.38,336.76 M 165.39,336.31 L 165.51,336.51 L 165.71,337.15 L 166.00,339.93 L 166.00,340.75 L 166.09,341.95 L 166.15,342.48 L 166.42,343.21 L 166.58,343.52 L 167.11,343.92 L 168.25,344.29 L 168.66,344.37 L 169.11,344.50 L 169.28,344.56 L 169.24,344.66 L 169.16,344.71 L 168.63,344.78 L 167.25,344.86 L 166.45,344.90 L 165.39,344.86 L 164.93,344.81 L 164.42,344.40 L 164.22,344.12 L 164.06,343.07 L 164.00,342.45 L 164.00,340.50 L 164.00,339.26 L 164.29,337.32 L 164.38,336.91 L 164.61,336.36 L 165.00,336.00 L 165.14,336.00 M 290.39,336.31 L 290.51,336.51 L 290.71,337.15 L 291.00,339.93 L 291.00,340.75 L 291.09,341.95 L 291.15,342.48 L 291.42,343.21 L 291.58,343.52 L 292.11,343.92 L 293.25,344.29 L 293.66,344.37 L 294.11,344.50 L 294.28,344.56 L 294.24,344.66 L 294.16,344.71 L 293.63,344.78 L 292.25,344.86 L 291.45,344.90 L 290.39,344.86 L 289.93,344.81 L 289.42,344.40 L 289.22,344.12 L 289.06,343.07 L 289.00,342.45 L 289.00,340.50 L 289.00,339.26 L 289.29,337.32 L 289.38,336.91 L 289.61,336.36 L 290.00,336.00 L 290.14,336.00 M 188.78,336.20 L 190.37,336.99 L 190.58,337.20 L 190.77,337.50 L 190.82,337.63 L 190.66,337.74 L 190.53,337.78 L 190.00,337.73 L 188.75,337.46 L 188.30,337.35 L 187.57,337.26 L 187.23,337.24 L 186.72,337.30 L 186.26,337.40 L 186.00,337.91 L 185.98,338.20 L 186.61,338.94 L 188.57,340.03 L 189.41,340.35 L 190.38,341.25 L 190.76,341.73 L 190.82,342.74 L 190.75,343.23 L 189.95,344.06 L 187.84,344.81 L 187.11,344.89 L 185.77,344.70 L 185.16,344.56 L 184.51,344.02 L 184.40,343.83 L 184.37,343.57 L 184.39,343.46 L 184.63,343.35 L 184.79,343.31 L 185.31,343.35 L 186.42,343.57 L 186.90,343.69 L 187.63,343.79 L 187.96,343.82 L 188.43,343.74 L 188.63,343.67 L 188.87,343.39 L 189.00,342.72 L 189.00,342.30 L 188.25,341.47 L 186.43,340.57 L 185.58,340.36 L 184.59,339.66 L 184.19,338.21 L 184.29,337.70 L 185.10,336.93 L 185.57,336.59 L 186.82,336.22 L 187.47,336.09 M 304.86,336.15 L 305.48,336.41 L 305.76,336.58 L 306.15,337.19 L 306.61,338.59 L 306.80,339.34 L 306.80,340.98 L 306.30,342.90 L 305.96,343.44 L 304.76,344.20 L 304.11,344.52 L 302.63,344.80 L 301.90,344.88 L 300.62,344.65 L 300.04,344.46 L 299.42,343.65 L 299.26,343.24 L 299.11,341.77 L 299.18,339.33 L 299.24,338.74 L 299.46,337.88 L 299.60,337.49 L 300.04,336.97 L 300.29,336.74 L 301.06,336.46 L 302.72,336.19 L 303.41,336.12 L 304.41,336.12 M 234.68,336.36 L 233.98,337.53 L 233.48,338.13 L 233.21,339.28 L 233.21,339.59 L 233.37,340.32 L 233.89,341.66 L 234.25,342.45 L 234.59,343.62 L 234.70,344.13 L 234.60,344.65 L 234.50,344.82 L 234.04,344.54 L 233.05,343.09 L 232.68,342.41 L 231.99,341.57 L 231.65,341.24 L 231.03,341.09 L 230.74,341.11 L 230.25,341.65 L 229.71,343.25 L 229.65,343.56 L 229.54,343.73 L 229.48,343.74 L 229.39,343.37 L 229.35,343.12 L 229.29,342.26 L 229.27,341.78 L 229.25,340.50 L 229.25,339.81 L 229.28,338.70 L 229.30,338.19 L 229.37,337.48 L 229.41,337.19 L 229.51,336.97 L 229.69,337.25 L 229.83,337.79 L 230.23,338.48 L 230.45,338.76 L 230.94,338.94 L 231.20,338.96 L 231.70,338.62 L 232.36,337.50 L 232.52,337.09 L 233.11,336.44 L 234.09,336.00 L 234.50,336.00 M 301.99,337.50 L 301.17,337.93 L 300.79,338.21 L 300.31,339.08 L 300.11,339.56 L 300.02,340.72 L 300.41,342.63 L 300.54,342.97 L 300.89,343.46 L 301.07,343.67 L 301.49,343.91 L 301.92,344.09 L 302.85,343.81 L 303.29,343.57 L 304.01,342.58 L 304.31,342.02 L 304.50,340.49 L 304.50,339.91 L 304.41,339.04 L 304.34,338.66 L 304.08,338.13 L 303.93,337.90 L 303.47,337.64 L 302.51,337.50 M 208.72,339.00 L 208.29,339.29 L 208.00,340.00 L 208.00,340.27 L 208.29,340.71 L 209.00,341.00 L 209.27,341.00 L 209.71,340.71 L 209.89,340.52 L 210.00,340.00 L 210.00,339.72 L 209.71,339.29 L 209.00,339.00 M 314.09,337.00 L 313.44,337.58 L 313.00,338.97 L 313.00,339.64 L 313.37,340.31 L 314.50,340.36 L 314.91,340.20 L 315.56,339.55 L 315.83,339.19 L 316.00,338.39 L 316.00,338.01 L 315.56,337.41 L 314.50,337.00 M 334.46,337.38 L 334.00,338.50 L 334.00,338.93 L 334.47,339.48 L 334.75,339.70 L 335.52,339.81 L 335.91,339.81 L 336.64,339.49 L 336.97,339.27 L 337.30,338.51 L 337.36,338.24 L 336.93,337.72 L 335.75,337.19 L 335.20,337.08 M 370.41,229.69 L 370.53,230.14 L 370.72,231.62 L 370.81,232.46 L 370.93,234.62 L 371.00,238.50 L 371.00,239.69 L 370.93,241.78 L 370.88,242.78 L 370.74,244.46 L 370.66,245.25 L 370.46,246.46 L 370.36,247.01 L 370.12,247.72 L 370.00,248.00 L 369.76,248.15 L 369.64,248.14 L 369.40,247.68 L 369.28,247.36 L 369.07,246.24 L 368.81,243.75 L 368.50,239.50 L 359.50,239.50 L 359.19,243.75 L 359.14,244.45 L 358.97,245.60 L 358.87,246.13 L 358.61,246.93 L 358.47,247.28 L 358.12,247.73 L 357.50,248.00 L 357.23,248.00 L 356.83,247.59 L 356.66,247.29 L 356.44,246.13 L 356.35,245.44 L 356.28,243.32 L 356.27,242.72 L 356.27,241.30 L 356.28,240.56 L 356.31,238.83 L 356.34,237.26 L 356.47,234.72 L 356.54,233.55 L 356.76,231.78 L 356.87,231.00 L 357.18,229.98 L 357.75,229.25 L 357.97,229.18 L 358.31,229.30 L 358.47,229.41 L 358.70,229.92 L 358.80,230.22 L 358.93,231.11 L 359.00,232.92 L 359.00,237.00 L 369.00,237.00 L 369.00,231.90 L 369.29,230.17 L 369.38,229.81 L 369.61,229.32 L 370.00,229.00 L 370.15,229.00 M 201.68,230.20 L 202.00,230.65 L 202.80,232.13 L 203.21,232.95 L 204.13,235.06 L 205.57,238.75 L 205.87,239.60 L 206.40,241.09 L 206.64,241.81 L 207.05,243.05 L 207.43,244.23 L 207.85,245.91 L 208.01,246.65 L 208.01,247.51 L 207.56,248.00 L 207.19,248.00 L 206.43,247.27 L 205.59,245.50 L 205.46,244.97 L 205.13,244.21 L 204.94,243.88 L 204.38,243.45 L 204.06,243.27 L 203.13,243.09 L 201.14,243.00 L 200.37,243.00 L 199.19,243.10 L 198.65,243.18 L 197.84,243.49 L 197.48,243.67 L 196.91,244.25 L 196.18,245.50 L 195.86,246.20 L 195.09,247.19 L 194.70,247.60 L 194.00,247.95 L 193.68,248.03 L 193.31,247.67 L 193.25,247.53 L 193.25,247.11 L 193.27,246.87 L 193.44,246.25 L 194.17,243.98 L 195.70,239.80 L 196.45,237.81 L 197.87,234.47 L 198.21,233.71 L 198.84,232.41 L 199.14,231.80 L 199.69,230.84 L 199.95,230.41 L 200.39,229.85 L 200.90,229.50 L 201.09,229.50 M 340.22,229.39 L 341.13,229.58 L 342.65,230.09 L 343.37,230.37 L 344.47,231.06 L 344.97,231.42 L 345.61,232.25 L 346.00,233.62 L 346.00,234.07 L 345.72,234.62 L 345.55,234.84 L 345.04,234.96 L 344.76,234.96 L 344.16,234.63 L 343.30,233.63 L 343.00,233.11 L 342.03,232.34 L 341.50,232.01 L 340.26,231.63 L 339.63,231.50 L 338.36,231.58 L 336.67,232.25 L 336.35,232.48 L 335.80,233.15 L 335.54,233.50 L 335.11,234.37 L 334.71,235.27 L 334.32,237.42 L 334.19,238.52 L 334.39,240.70 L 335.40,243.48 L 335.73,243.99 L 336.53,244.76 L 336.94,245.10 L 337.86,245.57 L 338.32,245.76 L 339.28,245.93 L 339.76,245.98 L 340.69,245.87 L 341.15,245.78 L 341.98,245.40 L 342.37,245.18 L 343.03,244.56 L 343.33,244.21 L 343.74,243.35 L 344.00,241.80 L 344.00,241.23 L 343.47,240.47 L 342.00,240.00 L 341.45,240.00 L 340.59,239.71 L 340.00,239.00 L 340.00,238.86 L 340.28,238.61 L 340.45,238.49 L 341.03,238.29 L 343.50,238.00 L 347.00,238.00 L 347.00,243.69 L 346.92,244.94 L 346.87,245.54 L 346.71,246.53 L 346.62,246.98 L 346.39,247.61 L 346.00,248.00 L 345.72,248.00 L 345.29,247.65 L 345.00,246.80 L 345.00,246.33 L 344.75,246.10 L 344.66,246.10 L 344.38,246.27 L 343.80,246.80 L 343.29,247.31 L 341.78,247.84 L 340.97,248.03 L 339.12,247.95 L 338.19,247.85 L 336.40,247.21 L 335.54,246.83 L 334.17,245.69 L 333.77,245.25 L 333.12,244.22 L 332.82,243.68 L 332.38,242.47 L 332.00,241.23 L 331.86,238.51 L 331.90,237.14 L 332.60,234.55 L 332.82,233.93 L 333.43,232.80 L 334.57,231.34 L 335.08,230.83 L 335.97,230.10 L 336.40,229.78 L 337.24,229.41 L 337.66,229.27 L 338.58,229.20 M 310.24,230.04 L 310.60,230.39 L 311.57,231.52 L 312.09,232.14 L 313.28,233.70 L 315.19,236.36 L 319.90,243.23 L 320.20,236.36 L 320.26,235.10 L 320.43,233.12 L 320.52,232.22 L 320.74,230.94 L 320.86,230.39 L 321.12,229.81 L 321.26,229.61 L 321.53,229.70 L 321.67,229.82 L 321.94,230.56 L 322.07,231.01 L 322.30,232.38 L 322.42,233.14 L 322.60,235.12 L 322.79,238.75 L 322.83,240.19 L 322.85,242.54 L 322.84,243.63 L 322.74,245.31 L 322.66,246.06 L 322.41,247.06 L 322.25,247.48 L 321.81,247.83 L 321.57,247.92 L 320.91,247.61 L 320.56,247.38 L 319.66,246.44 L 319.18,245.89 L 318.02,244.33 L 315.94,241.28 L 311.50,234.57 L 311.20,241.28 L 311.15,242.57 L 310.99,244.51 L 310.90,245.38 L 310.65,246.58 L 310.52,247.09 L 310.15,247.68 L 309.42,248.00 L 309.11,248.00 L 308.67,247.63 L 308.48,247.36 L 308.26,246.25 L 308.22,245.91 L 308.16,245.04 L 308.14,244.58 L 308.13,243.43 L 308.12,242.81 L 308.15,241.35 L 308.16,240.57 L 308.21,238.75 L 308.25,237.44 L 308.40,235.10 L 308.49,233.99 L 308.70,232.17 L 308.82,231.34 L 309.08,230.21 L 309.49,229.50 L 309.62,229.50 M 297.41,229.69 L 297.53,230.14 L 297.72,231.62 L 297.81,232.46 L 297.93,234.62 L 298.00,238.50 L 298.00,239.92 L 297.93,242.38 L 297.88,243.53 L 297.72,245.38 L 297.64,246.21 L 297.41,247.31 L 297.00,248.00 L 296.85,248.00 L 296.59,247.31 L 296.47,246.86 L 296.28,245.38 L 296.19,244.54 L 296.07,242.38 L 296.03,241.22 L 296.00,238.50 L 296.00,237.08 L 296.07,234.62 L 296.12,233.47 L 296.28,231.62 L 296.36,230.79 L 296.59,229.69 L 297.00,229.00 L 297.15,229.00 M 231.36,229.56 L 231.51,229.87 L 231.73,231.10 L 231.82,231.83 L 231.94,234.00 L 231.96,234.61 L 231.98,236.01 L 232.00,238.42 L 232.00,239.29 L 231.98,240.84 L 231.97,241.58 L 231.93,242.87 L 231.89,244.10 L 231.72,245.83 L 231.62,246.59 L 231.33,247.48 L 230.75,247.98 L 230.58,247.98 L 229.89,247.41 L 229.50,247.04 L 228.47,245.85 L 227.93,245.19 L 226.70,243.54 L 224.76,240.73 L 220.02,233.50 L 220.01,240.75 L 220.01,242.22 L 219.94,244.36 L 219.89,245.31 L 219.70,246.58 L 219.58,247.11 L 219.22,247.69 L 218.46,248.00 L 218.13,248.00 L 217.68,247.65 L 217.48,247.40 L 217.25,246.31 L 217.20,245.98 L 217.15,245.13 L 217.13,244.67 L 217.11,243.52 L 217.11,242.91 L 217.13,241.44 L 217.15,240.67 L 217.21,238.83 L 217.25,237.57 L 217.40,235.25 L 217.48,234.13 L 217.71,232.26 L 217.82,231.40 L 218.09,230.19 L 218.50,229.35 L 218.64,229.30 L 219.23,229.73 L 219.57,230.03 L 220.48,231.03 L 220.96,231.59 L 222.06,233.03 L 223.82,235.53 L 224.41,236.42 L 225.58,238.01 L 226.14,238.75 L 227.16,239.94 L 227.65,240.47 L 228.41,241.14 L 229.14,241.42 L 229.27,241.33 L 229.50,240.73 L 229.61,240.38 L 229.77,239.34 L 229.83,238.78 L 229.90,237.43 L 229.88,235.21 L 229.83,234.30 L 229.84,232.78 L 229.86,232.07 L 229.99,230.96 L 230.07,230.45 L 230.31,229.76 L 230.81,229.23 L 231.03,229.16 M 183.41,229.69 L 183.53,230.14 L 183.72,231.65 L 183.81,232.49 L 183.93,234.67 L 184.00,238.58 L 184.00,239.49 L 183.98,241.06 L 183.97,241.82 L 183.94,243.11 L 183.89,244.33 L 183.73,245.99 L 183.63,246.71 L 183.34,247.47 L 182.75,247.75 L 182.56,247.69 L 182.26,247.34 L 182.12,247.14 L 181.93,246.55 L 181.84,244.03 L 181.94,243.05 L 181.79,241.60 L 181.64,240.94 L 180.89,240.06 L 180.43,239.68 L 178.95,239.26 L 175.75,239.02 L 172.00,239.00 L 172.00,244.35 L 171.92,245.63 L 171.87,246.21 L 171.66,247.02 L 171.54,247.37 L 171.19,247.77 L 170.46,248.00 L 170.14,248.00 L 169.69,247.65 L 169.49,247.39 L 169.26,246.29 L 169.22,245.96 L 169.16,245.10 L 169.14,244.63 L 169.12,243.48 L 169.12,242.86 L 169.14,241.38 L 169.16,240.60 L 169.21,238.75 L 169.26,237.37 L 169.40,235.00 L 169.48,233.88 L 169.70,232.12 L 169.81,231.33 L 170.07,230.31 L 170.50,229.73 L 170.64,229.76 L 170.91,230.10 L 171.05,230.30 L 171.30,230.93 L 171.81,233.48 L 171.89,234.36 L 172.07,235.51 L 172.19,236.01 L 172.70,236.56 L 173.03,236.78 L 174.21,236.94 L 174.56,236.97 L 175.43,236.99 L 177.06,237.00 L 182.00,237.00 L 182.00,231.90 L 182.29,230.17 L 182.38,229.81 L 182.61,229.32 L 183.00,229.00 L 183.15,229.00 M 136.34,229.53 L 136.50,229.81 L 136.73,231.01 L 136.83,231.72 L 136.94,233.89 L 136.96,234.51 L 136.98,235.94 L 137.00,238.42 L 137.00,239.41 L 136.99,241.11 L 136.98,241.92 L 136.94,243.27 L 136.92,243.91 L 136.85,244.95 L 136.81,245.43 L 136.71,246.19 L 136.60,246.89 L 136.24,247.62 L 135.46,248.00 L 135.14,248.00 L 134.69,247.65 L 134.49,247.39 L 134.26,246.31 L 134.22,245.97 L 134.16,245.12 L 134.14,244.66 L 134.12,243.52 L 134.12,242.90 L 134.14,241.44 L 134.16,240.66 L 134.21,238.83 L 134.26,237.27 L 134.42,234.74 L 134.50,233.58 L 134.74,231.81 L 134.86,231.02 L 135.18,229.99 L 135.75,229.25 L 135.99,229.17 M 111.72,229.86 L 112.08,230.15 L 113.05,231.22 L 113.58,231.81 L 114.78,233.38 L 116.72,236.13 L 121.50,243.33 L 121.80,236.92 L 121.87,235.60 L 122.04,233.50 L 122.13,232.54 L 122.36,231.14 L 122.47,230.54 L 122.72,229.84 L 122.84,229.58 L 123.09,229.57 L 123.21,229.64 L 123.44,230.29 L 123.54,230.70 L 123.73,232.01 L 123.81,232.74 L 123.93,234.68 L 124.00,238.30 L 124.00,239.63 L 123.93,242.07 L 123.89,243.23 L 123.75,245.15 L 123.68,246.03 L 123.49,247.23 L 123.16,248.00 L 123.05,248.00 L 122.49,247.49 L 122.17,247.16 L 121.28,246.10 L 120.80,245.51 L 119.69,244.04 L 117.91,241.52 L 117.31,240.63 L 116.14,239.01 L 115.58,238.23 L 114.58,236.94 L 114.11,236.35 L 113.39,235.54 L 112.75,235.02 L 112.65,235.02 L 112.46,235.53 L 112.37,235.85 L 112.22,236.92 L 112.15,237.50 L 112.06,238.98 L 112.00,241.50 L 112.00,242.42 L 111.92,244.06 L 111.87,244.84 L 111.71,246.12 L 111.62,246.71 L 111.39,247.50 L 111.00,248.00 L 110.85,248.00 L 110.59,247.35 L 110.47,246.92 L 110.28,245.51 L 110.19,244.73 L 110.07,242.69 L 110.03,241.60 L 110.00,239.06 L 110.00,237.83 L 110.08,235.54 L 110.13,234.44 L 110.28,232.57 L 110.37,231.70 L 110.59,230.46 L 110.97,229.52 L 111.10,229.44 M 154.82,229.43 L 156.12,229.76 L 156.75,229.98 L 157.84,230.68 L 159.09,232.17 L 159.48,232.90 L 159.75,233.91 L 159.80,234.34 L 159.49,234.72 L 159.27,234.82 L 158.50,234.50 L 156.95,233.18 L 156.36,232.55 L 155.32,231.72 L 154.81,231.38 L 153.83,231.11 L 153.34,231.05 L 152.30,231.33 L 150.55,232.34 L 149.87,232.84 L 149.24,233.79 L 149.05,234.26 L 149.45,235.16 L 149.77,235.61 L 151.20,236.50 L 151.62,236.73 L 152.67,237.17 L 154.53,237.85 L 155.61,238.21 L 157.13,238.81 L 157.81,239.11 L 158.69,239.73 L 159.06,240.05 L 159.49,240.86 L 159.84,242.45 L 159.95,243.43 L 159.64,244.99 L 158.39,246.70 L 157.73,247.18 L 155.88,247.74 L 154.90,247.95 L 152.77,247.97 L 151.71,247.92 L 149.79,247.44 L 148.89,247.13 L 147.65,246.17 L 147.15,245.61 L 146.50,244.73 L 146.24,244.33 L 146.08,243.75 L 146.06,243.49 L 146.38,243.18 L 147.39,243.00 L 147.78,243.00 L 148.55,243.44 L 149.36,244.50 L 149.53,244.93 L 150.60,245.57 L 152.85,246.00 L 153.64,246.00 L 154.92,245.78 L 155.52,245.64 L 156.41,245.18 L 156.80,244.93 L 157.29,244.31 L 157.49,243.99 L 157.59,243.28 L 157.59,242.92 L 157.29,242.19 L 157.09,241.83 L 156.39,241.15 L 155.99,240.82 L 154.90,240.25 L 152.82,239.61 L 151.79,239.41 L 150.17,238.86 L 149.43,238.55 L 148.36,237.77 L 147.89,237.35 L 147.33,236.31 L 147.00,234.40 L 147.00,233.74 L 147.41,232.60 L 147.68,232.06 L 148.53,231.17 L 149.00,230.75 L 150.15,230.13 L 150.76,229.85 L 152.09,229.53 L 152.76,229.40 L 154.14,229.39 M 280.67,229.32 L 281.29,229.41 L 282.48,229.81 L 283.05,230.04 L 284.09,230.76 L 285.36,232.20 L 285.77,232.86 L 286.03,233.77 L 286.07,234.16 L 285.72,234.50 L 285.47,234.59 L 284.66,234.30 L 283.08,233.08 L 282.52,232.52 L 281.51,231.76 L 281.02,231.44 L 280.08,231.14 L 279.61,231.04 L 278.67,231.19 L 277.15,231.89 L 276.55,232.27 L 276.06,233.25 L 275.93,233.76 L 276.31,234.84 L 276.59,235.38 L 277.71,236.35 L 280.12,237.47 L 280.95,237.71 L 282.41,238.26 L 283.10,238.55 L 284.25,239.19 L 284.79,239.52 L 285.63,240.24 L 286.02,240.60 L 286.54,241.37 L 286.76,241.76 L 286.96,242.57 L 287.02,242.98 L 286.88,243.82 L 286.77,244.24 L 286.29,245.08 L 285.17,246.35 L 284.66,246.80 L 283.07,247.43 L 282.21,247.69 L 280.21,247.91 L 279.21,247.97 L 277.23,247.75 L 276.29,247.59 L 274.75,246.92 L 274.30,246.66 L 273.63,245.87 L 273.35,245.45 L 273.05,244.57 L 272.96,244.14 L 273.10,243.47 L 273.88,243.00 L 274.12,243.00 L 274.88,243.46 L 276.04,244.55 L 276.54,245.15 L 278.04,245.75 L 278.83,245.96 L 280.53,245.86 L 281.35,245.72 L 282.71,244.99 L 283.01,244.77 L 283.45,244.23 L 283.82,243.28 L 283.88,242.81 L 283.81,242.10 L 283.73,241.77 L 283.25,241.26 L 282.95,241.02 L 281.92,240.59 L 279.60,239.92 L 278.23,239.58 L 276.21,238.81 L 275.31,238.41 L 274.14,237.46 L 273.66,236.96 L 273.25,235.73 L 273.42,233.48 L 273.57,232.86 L 274.17,231.82 L 274.51,231.33 L 275.41,230.56 L 275.89,230.21 L 276.99,229.72 L 277.57,229.50 L 278.79,229.30 L 279.41,229.23 M 251.51,229.13 L 252.67,229.26 L 253.17,229.35 L 253.71,229.67 L 254.00,230.39 L 254.00,230.82 L 253.23,231.54 L 251.25,232.18 L 250.57,232.26 L 249.67,232.50 L 249.28,232.68 L 248.82,233.47 L 248.73,233.73 L 248.58,234.43 L 248.52,234.81 L 248.42,235.82 L 248.38,236.36 L 248.31,237.73 L 248.21,240.25 L 248.16,241.53 L 248.00,243.60 L 247.92,244.55 L 247.70,245.97 L 247.59,246.60 L 247.34,247.38 L 247.21,247.68 L 246.96,247.82 L 246.83,247.80 L 246.60,247.29 L 246.48,246.96 L 246.29,245.81 L 246.20,245.16 L 246.08,243.38 L 246.03,242.41 L 246.00,240.00 L 246.00,232.00 L 242.41,232.00 L 241.61,231.92 L 241.24,231.87 L 240.72,231.68 L 240.50,231.58 L 240.27,231.29 L 240.25,230.75 L 240.31,230.55 L 240.87,230.20 L 241.22,230.03 L 242.30,229.75 L 242.91,229.62 L 244.48,229.41 L 247.33,229.20 L 248.67,229.14 L 250.63,229.12 M 199.43,235.86 L 199.04,236.79 L 198.42,238.50 L 198.29,238.89 L 198.11,239.51 L 198.00,240.11 L 198.00,240.38 L 198.74,240.74 L 199.19,240.88 L 200.43,240.98 L 201.06,241.00 L 202.24,240.82 L 202.77,240.70 L 203.35,240.24 L 203.42,240.14 L 203.42,239.67 L 203.40,239.40 L 203.25,238.68 L 202.34,235.99 L 200.86,232.50 Z" fill="rgba(0,0,0,1)"/>
<path d="M 117.71,305.37 L 117.66,305.32 L 117.56,304.75 L 117.52,304.40 L 117.43,303.26 L 117.39,302.62 L 117.31,300.98 L 117.27,300.10 L 117.21,298.03 L 117.18,296.94 L 117.12,294.49 L 117.10,293.22 L 117.06,290.46 L 117.00,281.35 L 117.00,258.04 L 119.29,257.46 L 119.61,257.38 L 120.65,257.26 L 121.23,257.21 L 122.66,257.15 L 127.54,257.19 L 133.50,257.50 L 133.50,281.50 L 133.50,305.50 L 125.96,305.79 L 124.92,305.83 L 122.97,305.84 L 122.03,305.84 L 120.42,305.78 L 119.67,305.75 L 118.57,305.62 L 118.11,305.55 M 215.71,305.37 L 215.61,305.27 L 215.43,304.66 L 215.35,304.29 L 215.21,303.23 L 215.00,299.08 L 215.00,298.70 L 214.98,297.69 L 214.97,297.15 L 214.91,295.87 L 214.86,294.52 L 214.67,291.23 L 213.86,280.19 L 213.75,278.94 L 213.58,276.74 L 213.50,275.69 L 213.38,273.85 L 213.33,272.97 L 213.26,271.46 L 213.23,270.75 L 213.22,269.55 L 213.22,268.98 L 213.26,268.06 L 213.28,267.63 L 213.38,266.96 L 213.86,265.74 L 214.02,265.58 L 214.30,265.04 L 214.44,264.74 L 214.66,263.97 L 215.00,261.32 L 215.00,260.34 L 215.40,258.95 L 215.55,258.65 L 215.99,258.17 L 216.25,257.94 L 216.94,257.61 L 217.32,257.46 L 218.30,257.26 L 218.83,257.18 L 220.15,257.09 L 220.85,257.06 L 222.54,257.08 L 225.54,257.19 L 231.50,257.50 L 231.50,281.50 L 231.50,305.50 L 223.96,305.79 L 222.92,305.83 L 220.97,305.84 L 220.03,305.84 L 218.42,305.78 L 217.67,305.75 L 216.57,305.62 L 216.11,305.55 M 295.39,303.61 L 293.25,303.04 L 289.09,301.73 L 287.03,301.05 L 283.05,299.52 L 281.08,298.73 L 277.30,296.98 L 275.43,296.08 L 271.84,294.12 L 270.07,293.12 L 266.68,290.95 L 265.02,289.84 L 261.85,287.47 L 260.30,286.27 L 257.36,283.70 L 253.21,279.64 L 247.92,274.03 L 248.21,265.77 L 248.24,264.75 L 248.31,263.08 L 248.34,262.30 L 248.42,261.04 L 248.47,260.46 L 248.58,259.57 L 248.64,259.15 L 248.81,258.55 L 249.00,258.00 L 249.64,257.52 L 251.16,257.19 L 251.91,257.11 L 253.03,257.17 L 253.57,257.29 L 254.65,258.12 L 254.95,258.41 L 255.61,259.20 L 255.96,259.64 L 256.79,260.80 L 257.23,261.43 L 258.29,263.01 L 260.21,265.93 L 261.71,268.24 L 265.04,272.65 L 266.76,274.82 L 270.45,278.92 L 272.33,280.92 L 276.31,284.65 L 278.32,286.47 L 282.52,289.78 L 284.64,291.37 L 288.98,294.21 L 291.16,295.56 L 295.58,297.87 L 297.79,298.95 L 302.20,300.67 L 308.75,302.54 L 310.62,302.93 L 314.23,303.48 L 316.02,303.72 L 319.47,303.95 L 321.17,304.03 L 324.46,303.95 L 326.08,303.87 L 329.20,303.46 L 330.75,303.22 L 333.71,302.50 L 335.17,302.10 L 337.98,301.06 L 339.36,300.50 L 342.01,299.14 L 345.80,296.74 L 347.41,295.59 L 350.07,293.17 L 351.31,291.95 L 353.25,289.39 L 354.12,288.10 L 355.31,285.41 L 355.82,284.06 L 356.28,281.24 L 356.42,279.81 L 356.15,276.87 L 355.92,275.38 L 354.91,272.31 L 354.31,270.75 L 352.56,267.56 L 349.11,262.63 L 348.27,261.57 L 347.10,259.64 L 346.87,259.21 L 346.61,258.53 L 346.57,257.88 L 346.65,257.76 L 347.37,257.54 L 347.82,257.43 L 349.15,257.26 L 349.88,257.18 L 351.64,257.07 L 354.58,257.00 L 355.49,257.00 L 356.98,257.01 L 357.68,257.02 L 358.82,257.06 L 359.35,257.08 L 360.18,257.17 L 360.57,257.22 L 361.17,257.38 L 361.72,257.56 L 362.36,258.20 L 363.12,259.75 L 363.27,260.13 L 363.50,261.41 L 363.61,262.12 L 363.75,263.90 L 363.77,270.02 L 363.66,272.09 L 363.03,275.98 L 362.64,277.88 L 361.47,281.43 L 360.81,283.17 L 359.10,286.39 L 358.18,287.95 L 355.92,290.84 L 354.73,292.24 L 351.94,294.80 L 350.47,296.03 L 347.14,298.26 L 345.40,299.32 L 341.52,301.21 L 335.10,303.68 L 334.43,303.89 L 332.28,304.31 L 331.10,304.51 L 328.14,304.87 L 326.59,305.04 L 323.08,305.31 L 317.50,305.60 L 316.07,305.64 L 313.60,305.71 L 312.42,305.73 L 310.35,305.74 L 308.37,305.74 L 305.16,305.54 L 303.61,305.40 L 300.62,304.87 L 299.84,304.71 L 298.17,304.32 L 297.31,304.11 M 118.25,220.36 L 118.13,220.31 L 117.92,219.82 L 117.82,219.50 L 117.65,218.40 L 117.57,217.77 L 117.43,215.98 L 117.37,214.99 L 117.26,212.41 L 117.21,211.02 L 117.14,207.56 L 117.11,205.72 L 117.06,201.29 L 117.05,200.12 L 117.03,197.58 L 117.02,196.28 L 117.01,193.47 L 117.01,192.03 L 117.00,188.93 L 117.00,183.95 L 117.00,181.30 L 116.99,176.52 L 116.98,174.21 L 116.97,170.10 L 116.96,168.12 L 116.97,164.62 L 116.97,162.94 L 117.02,160.01 L 117.04,158.62 L 117.14,156.21 L 117.20,155.06 L 117.38,153.13 L 117.48,152.21 L 117.75,150.70 L 117.90,149.99 L 118.28,148.86 L 118.49,148.33 L 119.01,147.53 L 119.29,147.16 L 119.96,146.63 L 120.32,146.40 L 121.16,146.11 L 121.61,145.99 L 122.64,145.88 L 123.73,145.80 L 126.55,146.01 L 127.32,146.07 L 129.04,146.23 L 131.92,146.45 L 134.75,146.64 L 139.87,147.31 L 142.36,147.69 L 146.89,148.78 L 149.09,149.38 L 153.17,150.93 L 158.93,153.80 L 160.07,154.47 L 162.53,156.22 L 163.78,157.15 L 166.38,159.32 L 167.69,160.46 L 170.32,162.96 L 171.64,164.24 L 174.20,166.94 L 175.46,168.31 L 177.85,171.11 L 179.01,172.51 L 181.11,175.29 L 182.12,176.67 L 183.84,179.31 L 185.87,183.00 L 186.11,183.52 L 186.42,184.20 L 186.54,184.48 L 186.59,184.69 L 186.58,184.74 L 186.37,184.49 L 185.77,183.64 L 183.72,180.64 L 179.81,175.33 L 177.88,172.79 L 174.16,168.33 L 172.32,166.21 L 168.70,162.55 L 166.90,160.81 L 163.30,157.89 L 161.49,156.51 L 157.83,154.24 L 155.98,153.19 L 152.17,151.52 L 150.24,150.76 L 146.19,149.63 L 139.76,148.48 L 134.03,147.77 L 133.76,184.14 L 133.50,220.50 L 126.50,220.69 L 125.54,220.72 L 123.68,220.72 L 122.78,220.72 L 121.19,220.67 L 120.44,220.64 L 119.29,220.55 L 118.78,220.49 M 215.71,220.37 L 215.66,220.32 L 215.56,219.50 L 215.52,218.97 L 215.43,217.27 L 215.39,216.32 L 215.31,213.84 L 215.27,212.52 L 215.21,209.36 L 215.18,207.70 L 215.12,203.97 L 215.10,202.04 L 215.06,197.82 L 215.04,195.67 L 215.01,191.07 L 215.00,183.87 L 215.00,181.72 L 215.00,177.80 L 215.00,175.90 L 215.01,172.46 L 215.01,170.79 L 215.02,167.79 L 215.02,166.34 L 215.04,163.75 L 215.05,162.51 L 215.07,160.30 L 215.09,159.24 L 215.12,157.37 L 215.14,156.48 L 215.19,154.94 L 215.21,154.20 L 215.27,152.94 L 215.33,151.74 L 215.51,150.06 L 215.60,149.33 L 215.85,148.38 L 215.98,147.97 L 216.32,147.49 L 216.93,147.04 L 217.20,146.89 L 217.95,146.65 L 218.35,146.54 L 219.33,146.36 L 220.35,146.19 L 222.80,146.05 L 224.05,146.01 L 226.55,146.13 L 229.76,146.63 L 232.02,147.24 L 231.76,183.87 L 231.50,220.50 L 223.96,220.79 L 222.92,220.83 L 220.97,220.84 L 220.03,220.84 L 218.42,220.78 L 217.67,220.75 L 216.57,220.62 L 216.11,220.55 M 279.42,219.12 L 278.76,218.71 L 277.33,217.66 L 276.60,217.10 L 275.07,215.77 L 273.54,214.39 L 270.44,211.11 L 268.93,209.43 L 266.26,205.96 L 265.64,205.11 L 264.57,203.45 L 263.26,201.13 L 262.64,199.85 L 261.77,197.78 L 261.40,196.76 L 260.94,194.65 L 260.85,194.08 L 260.72,192.81 L 260.66,192.14 L 260.58,190.60 L 260.55,189.79 L 260.53,187.88 L 260.51,184.50 L 260.52,183.30 L 260.54,181.23 L 260.55,180.24 L 260.60,178.55 L 260.64,177.75 L 260.73,176.36 L 260.79,175.70 L 260.95,174.53 L 261.12,173.41 L 261.69,171.49 L 262.98,168.50 L 263.63,167.17 L 265.25,164.63 L 266.11,163.38 L 268.12,161.01 L 269.18,159.84 L 271.55,157.66 L 272.78,156.60 L 275.49,154.63 L 276.88,153.68 L 279.88,151.95 L 281.41,151.12 L 284.67,149.65 L 286.33,148.95 L 289.81,147.77 L 295.26,146.35 L 296.35,146.11 L 298.91,145.76 L 300.24,145.60 L 303.18,145.39 L 306.18,145.22 L 312.75,145.29 L 316.04,145.39 L 322.39,145.99 L 323.92,146.17 L 326.74,146.62 L 330.50,147.44 L 332.78,148.04 L 337.58,149.83 L 339.99,150.80 L 344.69,153.13 L 346.98,154.33 L 351.11,156.95 L 352.08,157.61 L 353.83,158.95 L 356.12,160.93 L 361.00,165.63 L 361.00,176.82 L 361.00,178.35 L 360.97,181.16 L 360.95,182.50 L 360.88,184.71 L 360.84,185.73 L 360.75,187.12 L 360.73,187.40 L 360.67,187.77 L 360.59,188.00 L 360.54,188.00 L 359.99,187.34 L 359.66,186.91 L 358.66,185.53 L 358.12,184.77 L 356.79,182.86 L 354.59,179.59 L 353.46,177.89 L 351.07,174.68 L 349.85,173.11 L 347.30,170.16 L 346.00,168.71 L 343.30,166.03 L 341.94,164.72 L 339.12,162.30 L 337.69,161.12 L 334.76,158.98 L 333.28,157.95 L 330.25,156.09 L 328.72,155.20 L 325.62,153.63 L 324.06,152.88 L 320.89,151.61 L 319.30,151.01 L 316.08,150.03 L 314.47,149.58 L 311.23,148.92 L 309.61,148.63 L 306.35,148.27 L 304.73,148.14 L 301.48,148.10 L 299.85,148.13 L 296.62,148.42 L 295.01,148.61 L 291.82,149.24 L 290.23,149.59 L 287.09,150.56 L 282.46,152.39 L 280.68,153.20 L 277.59,154.99 L 276.12,155.90 L 273.64,157.88 L 272.47,158.89 L 270.60,161.03 L 269.74,162.13 L 268.46,164.43 L 267.90,165.60 L 267.21,168.03 L 266.95,169.27 L 266.85,171.83 L 266.87,173.12 L 267.34,175.78 L 267.65,177.12 L 268.70,179.87 L 269.29,181.25 L 270.90,184.06 L 271.77,185.48 L 273.93,188.34 L 275.08,189.77 L 277.79,192.67 L 279.21,194.12 L 282.45,197.03 L 284.14,198.49 L 287.92,201.39 L 289.87,202.85 L 294.17,205.73 L 296.39,207.17 L 301.20,210.02 L 309.00,214.24 L 310.31,214.90 L 312.71,216.19 L 313.87,216.82 L 315.81,217.94 L 316.70,218.47 L 317.95,219.29 L 318.22,219.47 L 318.57,219.75 L 318.83,220.04 L 318.86,220.11 L 318.58,220.25 L 318.39,220.32 L 317.69,220.44 L 317.29,220.50 L 316.20,220.60 L 315.61,220.65 L 314.14,220.74 L 313.36,220.78 L 311.54,220.85 L 310.58,220.88 L 308.43,220.93 L 307.31,220.95 L 304.85,220.98 L 300.83,221.00 L 298.81,221.00 L 295.38,220.98 L 293.76,220.97 L 291.05,220.93 L 289.77,220.91 L 287.67,220.84 L 286.69,220.79 L 285.08,220.68 L 284.34,220.61 L 283.13,220.44 L 282.56,220.34 L 281.64,220.11 L 280.77,219.85 Z" fill="rgba(223,223,223,1)"/>
</g>
</svg>